<svg width="2679" height="2679" viewBox="0 0 2679 2679" fill="none" xmlns="http://www.w3.org/2000/svg">
<path d="M2591 2132.01C1882.66 2104.11 1513.88 2252.46 1418.04 2330.12C1558.89 2036.58 2142.17 1960.41 2416.19 1959.01V492.705L2591 434.108V2132.01Z" fill="#761CF7"/>
<path d="M88.0006 2132.01C796.339 2104.11 1165.12 2252.46 1260.96 2330.12C1120.11 2036.58 536.835 1960.41 262.805 1959.01V492.705L88.0006 434.108V2132.01Z" fill="#761CF7"/>
<path d="M348.941 395.053C745.165 362.521 1122.05 667.559 1260.96 824.145C854.608 553.788 594.259 535.747 514.879 560.521V1685.13C1018.52 1777.12 1204.39 2015.13 1234.36 2122.64C964.81 1867.99 531.768 1837.04 348.941 1853.4V395.053Z" fill="#C094FF"/>
<path d="M1395.23 822.353C1442.32 771.383 1514.33 705.041 1602.97 639.77M1395.23 822.353L1841.11 1202.42M1395.23 822.353L1401.88 1147.42M2308.52 395.435C2217.95 386.1 2126.87 396.551 2038.71 420.029M2308.52 395.435L1841.11 1202.42M2308.52 395.435L2308.2 759.92M2307.25 1853.37C2233.14 1850.73 2164.44 1852.2 2100.78 1856.98M2307.25 1853.37L2087.36 1546.3M2307.25 1853.37L2307.57 1488.89M1421.83 2122.64C1472.81 2076.33 1528.51 2031.7 1633.37 1981.73M1421.83 2122.64L1415.18 1797.57M1421.83 2122.64L1631.47 1662.53M1602.97 639.77C1662.23 596.127 1728.93 552.963 1800.57 515.194M1602.97 639.77L1626.18 1664.4M1633.37 1981.73C1702.47 1948.8 1782.69 1910.88 1881.64 1889.65M1633.37 1981.73L1626.18 1664.4M1800.57 515.194C1875.49 475.7 1955.81 442.106 2038.71 420.029M1800.57 515.194L1408.53 1472.5M1800.57 515.194L2307.89 1124.4M1800.57 515.194L1821.24 865.602M1881.64 1889.65C1941.76 1876.74 2028.12 1862.44 2100.78 1856.98M1881.64 1889.65L2307.89 1124.4M1881.64 1889.65L1626.18 1664.4M1881.64 1889.65L1861.37 1546.03M2038.71 420.029L2087.36 1546.3M2100.78 1856.98L2087.36 1546.3M1841.11 1202.42L2307.89 1124.4M1841.11 1202.42L1408.53 1472.5M1841.11 1202.42L1821.24 865.602M1841.11 1202.42L1631.47 1662.53M1841.11 1202.42L1861.37 1546.03M1841.11 1202.42L2087.36 1546.3M1408.53 1472.5L1401.88 1147.42M1408.53 1472.5L1415.18 1797.57M1408.53 1472.5L1626.18 1664.4M2307.89 1124.4L2308.2 759.92M2307.89 1124.4L2307.57 1488.89M2308.2 759.92L1944.98 838.749L1821.24 865.602M1821.24 865.602L1401.88 1147.42M1415.18 1797.57L1626.18 1664.4M1631.47 1662.53L1861.37 1546.03M1861.37 1546.03L2087.36 1546.3M2087.36 1546.3L2307.57 1488.89" stroke="#C094FF" stroke-width="12"/>
<ellipse cx="1395.23" cy="811.191" rx="50.668" ry="55.8062" fill="#C094FF"/>
<ellipse cx="1410.43" cy="2089.15" rx="50.668" ry="55.8062" fill="#C094FF"/>
<ellipse cx="2302.19" cy="1835.24" rx="50.668" ry="55.8062" fill="#C094FF"/>
<ellipse cx="2302.19" cy="403.806" rx="50.668" ry="55.8062" fill="#C094FF"/>
<ellipse cx="1795.51" cy="515.419" rx="38.001" ry="41.8547" fill="#C094FF"/>
<ellipse cx="1881.64" cy="1874.3" rx="38.001" ry="41.8547" fill="#C094FF"/>
<ellipse cx="2304.72" cy="1120.92" rx="38.001" ry="41.8547" fill="#C094FF"/>
<ellipse cx="1410.43" cy="1466.92" rx="38.001" ry="41.8547" fill="#C094FF"/>
<ellipse cx="1843.64" cy="1224.16" rx="60.8016" ry="66.9675" fill="#C094FF"/>
<ellipse cx="1602.97" cy="1003.72" rx="35.4676" ry="39.0644" fill="#C094FF"/>
<ellipse cx="1600.43" cy="643.773" rx="22.8006" ry="25.1128" fill="#C094FF"/>
<ellipse cx="2036.18" cy="417.757" rx="22.8006" ry="25.1128" fill="#C094FF"/>
<ellipse cx="2309.78" cy="755.385" rx="22.8006" ry="25.1128" fill="#C094FF"/>
<ellipse cx="1820.84" cy="866.998" rx="22.8006" ry="25.1128" fill="#C094FF"/>
<ellipse cx="1400.3" cy="1146.03" rx="22.8006" ry="25.1128" fill="#C094FF"/>
<ellipse cx="1415.5" cy="1796.17" rx="22.8006" ry="25.1128" fill="#C094FF"/>
<ellipse cx="1863.91" cy="1550.62" rx="22.8006" ry="25.1128" fill="#C094FF"/>
<ellipse cx="2304.72" cy="1492.03" rx="22.8006" ry="25.1128" fill="#C094FF"/>
<ellipse cx="2102.05" cy="1854.77" rx="22.8006" ry="25.1128" fill="#C094FF"/>
<ellipse cx="1618.17" cy="1341.35" rx="22.8006" ry="25.1128" fill="#C094FF"/>
<ellipse cx="2071.65" cy="1165.56" rx="22.8006" ry="25.1128" fill="#C094FF"/>
<ellipse cx="2053.91" cy="816.773" rx="35.4676" ry="39.0644" fill="#C094FF"/>
<ellipse cx="2079.25" cy="1531.09" rx="35.4676" ry="39.0644" fill="#C094FF"/>
<ellipse cx="1620.7" cy="1667.82" rx="35.4676" ry="39.0644" fill="#C094FF"/>
</svg>
