<svg width="143" height="143" viewBox="0 0 143 143" fill="none" xmlns="http://www.w3.org/2000/svg">
<g filter="url(#filter0_d_148_4)">
<circle cx="71.5" cy="72.5" r="52.5" fill="white"/>
</g>
<path d="M76.0288 65.1628C76.0288 65.1628 79.6917 50.5334 85.61 48.7852C85.61 48.7852 87.0552 49.1282 86.992 51.4521C86.992 51.4521 80.2911 55.4532 76.0288 65.1628Z" fill="#242424"/>
<path opacity="0.5" d="M79.9804 56.7798C79.7013 56.3407 79.5964 55.8738 79.6229 55.4189C77.3257 59.9823 76.0288 65.162 76.0288 65.162C77.4176 61.9989 79.0641 59.4455 80.6547 57.4349C80.3824 57.2637 80.1461 57.0403 79.9804 56.7798Z" fill="#F0294D"/>
<path d="M78.0711 59.2286C78.8966 59.1199 81.5806 48.8461 76.5661 46C72.3383 50.0654 77.2456 59.3373 78.0711 59.2286Z" fill="#A5DA30"/>
<path opacity="0.5" d="M79.4755 54.1452C79.1445 54.8538 78.5491 55.3184 77.6316 55.1423C76.5101 54.9267 75.6581 53.9879 75.1089 52.873C75.768 56.245 77.5956 59.2915 78.0709 59.2283C78.46 59.1779 79.2612 56.8699 79.4755 54.1452Z" fill="#F0294D"/>
<path d="M95.726 74.9349C95.916 61.7209 83.5071 57.9427 78.4768 59.5847C76.4627 54.3558 65.8761 46.426 56.5143 54.9703C47.1525 63.5147 50.7223 83.7222 52.7014 88.8454C54.6806 93.9686 59.8715 96.9623 62.829 95.2274C63.4611 98.7894 68.9035 101.21 73.8362 99.6056C78.7683 98.0012 95.5354 88.1483 95.726 74.9349Z" fill="#F0294D"/>
<path opacity="0.5" d="M95.7262 74.9348C95.7504 73.2455 95.5678 71.7116 95.2221 70.3223C95.2063 70.5955 95.1855 70.8694 95.1567 71.1432C94.9791 72.8362 94.3639 74.5456 93.7335 76.1013C93.071 77.7366 92.1316 79.2474 91.2052 80.7144C89.6557 83.1683 87.5975 85.2875 85.4086 87.0715C83.3336 88.7627 80.8543 90.18 78.3118 90.82C71.0148 92.6563 63.2623 90.6712 57.5921 85.3088C54.8675 82.7323 52.5562 79.452 51.4093 75.7163C50.9655 74.2705 50.6153 72.7372 50.4056 71.2131C50.0515 78.6863 51.6157 86.035 52.7011 88.8453C54.6803 93.9685 59.8712 96.9621 62.8287 95.2273C63.4608 98.7893 68.9032 101.21 73.8359 99.6054C78.7686 98.0011 95.5356 88.1482 95.7262 74.9348Z" fill="#F0294D"/>
<path opacity="0.5" d="M64.5193 61.3451C61.4964 63.1043 56.9946 64.3983 56.0506 62.5177C55.1067 60.6371 58.0789 56.2935 61.1018 54.5344C64.1246 52.7752 66.0542 54.266 66.9975 56.1466C67.9414 58.0278 67.5428 59.586 64.5193 61.3451Z" fill="#F1E3C8"/>
<path opacity="0.5" d="M83.4524 65.4046C81.5093 65.0209 79.0588 63.855 79.2646 62.646C79.4704 61.437 82.2548 60.6433 84.1984 61.0271C86.1415 61.4109 86.5075 62.8276 86.3016 64.0366C86.0953 65.2449 85.3955 65.7884 83.4524 65.4046Z" fill="#F1E3C8"/>
<defs>
<filter id="filter0_d_148_4" x="0.799999" y="0.799999" width="141.4" height="141.4" filterUnits="userSpaceOnUse" color-interpolation-filters="sRGB">
<feFlood flood-opacity="0" result="BackgroundImageFix"/>
<feColorMatrix in="SourceAlpha" type="matrix" values="0 0 0 0 0 0 0 0 0 0 0 0 0 0 0 0 0 0 127 0" result="hardAlpha"/>
<feOffset dy="-1"/>
<feGaussianBlur stdDeviation="9.1"/>
<feComposite in2="hardAlpha" operator="out"/>
<feColorMatrix type="matrix" values="0 0 0 0 0 0 0 0 0 0 0 0 0 0 0 0 0 0 0.14 0"/>
<feBlend mode="normal" in2="BackgroundImageFix" result="effect1_dropShadow_148_4"/>
<feBlend mode="normal" in="SourceGraphic" in2="effect1_dropShadow_148_4" result="shape"/>
</filter>
</defs>
</svg>
