<svg width="143" height="143" viewBox="0 0 143 143" fill="none" xmlns="http://www.w3.org/2000/svg">
<g filter="url(#filter0_d_148_3)">
<circle cx="71.5" cy="72.5" r="52.5" fill="white"/>
</g>
<path d="M74.9784 73.133C74.0892 74.0513 72.9776 75.142 71.5922 76.4395C60.2638 87.0518 49.6643 96.025 47.368 96.8759C47.1585 97.0107 47.0464 97.0388 47.0464 96.9448C46.9591 96.937 46.997 96.8195 47.1425 96.6064C48.1539 94.2275 57.4829 83.7453 68.3981 72.6425C69.734 71.2838 70.85 70.1994 71.7843 69.3359L74.9784 73.133Z" fill="#918E91"/>
<path opacity="0.2" d="M69.3823 78.4956C68.9559 76.7812 67.4411 75.3535 65.7749 75.33C66.6364 74.4415 67.5109 73.5451 68.3971 72.6425C69.733 71.2838 70.8491 70.1994 71.7833 69.3359L74.9774 73.1314C74.0883 74.0482 72.9765 75.1388 71.5912 76.4379C70.852 77.1322 70.1142 77.8186 69.3823 78.4956Z" fill="#EC29F0"/>
<path d="M66.4538 64.1229C66.4538 64.1229 65.7975 65.1102 72.1464 72.651C78.4939 80.1918 79.4702 79.5854 79.4702 79.5854C87.8083 71.67 93.4253 63.4632 93.4253 63.4632L88.0717 57.1024L82.7182 50.7432C82.7182 50.7432 74.5838 55.9615 66.4538 64.1229Z" fill="#8F30DA"/>
<path opacity="0.2" d="M80.9983 57.3547C83.018 58.3874 84.901 59.6709 86.3663 61.6094C88.0921 63.8926 88.9696 66.1805 89.3247 68.8681C91.9265 65.6571 93.4268 63.4632 93.4268 63.4632L82.7197 50.7432C82.7197 50.7432 79.498 52.8102 75.083 56.3768C77.0155 56.0932 79.0643 56.3674 80.9983 57.3547Z" fill="#EC29F0"/>
<path d="M81.5718 49.3535C79.9493 50.9378 83.107 54.9041 86.3505 58.7873C89.5941 62.6705 92.9235 66.4692 94.6013 64.8316C96.2398 63.2316 92.8958 59.7793 89.7439 55.9807C86.4349 51.994 83.2336 47.7315 81.5718 49.3535Z" fill="#8F30DA"/>
<path opacity="0.2" d="M92.0456 64.6214C92.3904 64.3268 92.6188 63.8613 92.6159 63.2063C92.6043 60.7146 90.8508 58.9235 89.3345 57.1229C88.1675 55.7376 86.999 54.3538 85.845 52.9575C84.9938 51.9264 84.0625 50.8122 82.9973 50.049C82.52 49.7074 81.9976 49.5006 81.4956 49.4394C81.5203 49.4112 81.5436 49.3815 81.5713 49.3548C83.2331 47.7329 86.4344 51.997 89.742 55.9821C92.8939 59.7807 96.2379 63.2329 94.5994 64.8329C93.9577 65.4566 93.0729 65.2858 92.0456 64.6214Z" fill="#EC29F0"/>
<path d="M62.9742 60.6234C60.5586 62.9819 65.2588 68.8851 70.0856 74.6645C74.9124 80.4439 79.8686 86.0995 82.3657 83.6596C84.8045 81.2792 79.8279 76.1407 75.135 70.4851C70.2136 64.5553 65.4465 58.2086 62.9742 60.6234Z" fill="#8F30DA"/>
<path opacity="0.2" d="M78.565 83.3493C79.0786 82.9121 79.4192 82.2178 79.4149 81.2415C79.3989 77.5323 76.7867 74.8667 74.5298 72.1869C72.7938 70.1247 71.0534 68.0655 69.3363 65.986C68.0689 64.4503 66.6836 62.7923 65.0989 61.6561C64.3888 61.1468 63.6103 60.8397 62.8638 60.7488C62.9001 60.7065 62.935 60.6626 62.9758 60.6234C65.4481 58.2086 70.2153 64.5553 75.1381 70.4867C79.831 76.1407 84.8062 81.2807 82.3688 83.6596C81.4113 84.5935 80.0944 84.3381 78.565 83.3493Z" fill="#EC29F0"/>
<path opacity="0.5" d="M83.5464 67.3936C85.9242 64.8816 86.528 65.264 87.3138 66.14C88.0982 67.016 88.7675 68.0549 86.3898 70.567C84.0121 73.079 82.4492 72.8957 81.6634 72.0197C80.8776 71.1437 81.1687 69.9057 83.5464 67.3936Z" fill="#F1E3C8"/>
<defs>
<filter id="filter0_d_148_3" x="0.799999" y="0.799999" width="141.4" height="141.4" filterUnits="userSpaceOnUse" color-interpolation-filters="sRGB">
<feFlood flood-opacity="0" result="BackgroundImageFix"/>
<feColorMatrix in="SourceAlpha" type="matrix" values="0 0 0 0 0 0 0 0 0 0 0 0 0 0 0 0 0 0 127 0" result="hardAlpha"/>
<feOffset dy="-1"/>
<feGaussianBlur stdDeviation="9.1"/>
<feComposite in2="hardAlpha" operator="out"/>
<feColorMatrix type="matrix" values="0 0 0 0 0 0 0 0 0 0 0 0 0 0 0 0 0 0 0.14 0"/>
<feBlend mode="normal" in2="BackgroundImageFix" result="effect1_dropShadow_148_3"/>
<feBlend mode="normal" in="SourceGraphic" in2="effect1_dropShadow_148_3" result="shape"/>
</filter>
</defs>
</svg>
