<svg width="145" height="116" viewBox="0 0 145 116" fill="none" xmlns="http://www.w3.org/2000/svg">
<path d="M121.895 6.31698C122.938 7.48514 99.0573 87.0302 97.4635 87.3778C95.8686 87.7285 82.2542 84.1472 82.0409 82.95C82.0174 82.8228 82.2584 81.7941 82.709 80.0578C82.7997 79.7076 82.8993 79.33 83.0078 78.9213C83.0542 78.7426 83.1027 78.5573 83.1559 78.3695C83.3212 77.7363 83.5079 77.0451 83.7113 76.2984C83.813 75.9253 83.9199 75.5343 84.0295 75.1338C84.0816 74.9495 84.1311 74.7607 84.1849 74.5693C84.3622 73.9208 84.5499 73.2372 84.7497 72.5271C84.8535 72.1469 84.9593 71.7601 85.0678 71.3625C85.12 71.1783 85.1726 70.9905 85.2258 70.8026C85.4105 70.1409 85.5972 69.4614 85.7938 68.7615C85.9017 68.3788 86.0113 67.9929 86.1187 67.599C86.1719 67.4111 86.2246 67.2233 86.2777 67.0355C86.4671 66.3718 86.658 65.6892 86.8556 64.9975C86.9604 64.6137 87.0731 64.2289 87.1795 63.8379C87.2327 63.6501 87.289 63.4633 87.3417 63.2755C87.542 62.5619 87.749 61.8391 87.9571 61.1015C88.0603 60.7478 88.161 60.3889 88.2653 60.0316C88.3143 59.8575 88.3639 59.6799 88.4129 59.5058C88.6105 58.8141 88.8113 58.1122 89.0142 57.4031C89.1258 57.0214 89.2359 56.632 89.3485 56.2467C89.4017 56.0588 89.4544 55.871 89.5107 55.6837C89.7032 55.0093 89.9008 54.3287 90.0964 53.6441C90.208 53.2624 90.317 52.876 90.4291 52.4912C90.4813 52.307 90.5376 52.1202 90.5903 51.9318C90.7869 51.2549 90.9845 50.5743 91.1848 49.8872C91.2928 49.5044 91.4054 49.1191 91.5175 48.7343C91.5739 48.5475 91.626 48.3632 91.6787 48.1749C91.88 47.4954 92.0777 46.8153 92.2764 46.1312C92.388 45.7495 92.4991 45.3677 92.6107 44.986C92.667 44.7992 92.7192 44.6149 92.7718 44.4266C92.9898 43.6916 93.2042 42.9561 93.4222 42.2211C93.5223 41.8775 93.6219 41.5339 93.7231 41.1868C93.7731 41.0208 93.8232 40.8544 93.8702 40.6874C94.0809 39.9769 94.2921 39.2627 94.5028 38.5522C94.6144 38.1704 94.7291 37.7897 94.8392 37.4115L95.0061 36.8577C95.2068 36.167 95.4123 35.4849 95.6147 34.8024C95.7294 34.4216 95.84 34.0434 95.9537 33.6662L96.1216 33.1089C96.326 32.4192 96.5325 31.7336 96.737 31.0551C96.8475 30.6769 96.9612 30.2997 97.0749 29.922L97.2429 29.3647C97.4515 28.6724 97.657 27.9903 97.8651 27.3129L98.3751 25.6204C98.6041 24.8737 98.8294 24.1372 99.0484 23.4103C99.1538 23.0718 99.2596 22.7339 99.3618 22.3944C99.4119 22.2284 99.4667 22.0594 99.5167 21.8935C99.7379 21.1712 99.9585 20.4632 100.173 19.7649C100.292 19.3816 100.41 19.0019 100.53 18.6298C100.586 18.443 100.645 18.2567 100.702 18.0699C100.919 17.3761 101.134 16.6971 101.342 16.0308C101.465 15.6485 101.583 15.2688 101.702 14.8967C101.761 14.711 101.821 14.5247 101.881 14.3389C102.101 13.6426 102.32 12.9646 102.529 12.3095C102.656 11.9211 102.778 11.5424 102.9 11.1713C102.961 10.982 103.024 10.7967 103.083 10.6145C103.313 9.90952 103.538 9.23713 103.752 8.59884C103.886 8.20436 104.014 7.82414 104.14 7.45765C104.205 7.26576 104.268 7.08099 104.33 6.89928C104.6 6.12305 104.85 5.41248 105.084 4.78386C105.225 4.39956 105.358 4.04275 105.481 3.71699C105.557 3.52815 105.625 3.34847 105.694 3.17999C106.138 2.06985 106.47 1.40204 106.661 1.26105C108.98 -0.429864 120.463 4.70598 121.895 6.31698Z" fill="#FBB136"/>
<path opacity="0.2" d="M121.895 6.31698C122.938 7.48514 99.0573 87.0302 97.4635 87.3778C95.8686 87.7285 82.2542 84.1472 82.0409 82.95C82.0174 82.8228 82.2584 81.7941 82.709 80.0578C82.7997 79.7076 82.8993 79.33 83.0078 78.9213C83.0542 78.7426 83.1027 78.5573 83.1559 78.3695C83.3212 77.7363 83.5079 77.0451 83.7113 76.2984C83.813 75.9253 83.9199 75.5343 84.0295 75.1338C84.0816 74.9495 84.1311 74.7607 84.1849 74.5693C84.3622 73.9208 84.5499 73.2372 84.7497 72.5271C84.8535 72.1469 84.9593 71.7601 85.0678 71.3625C85.12 71.1783 85.1726 70.9905 85.2258 70.8026C85.4105 70.1409 85.5972 69.4614 85.7938 68.7615C85.9017 68.3788 86.0113 67.9929 86.1187 67.599C86.1719 67.4111 86.2246 67.2233 86.2777 67.0355C86.4671 66.3718 86.658 65.6892 86.8556 64.9975C86.9604 64.6137 87.0731 64.2289 87.1795 63.8379C87.2327 63.6501 87.289 63.4633 87.3417 63.2755C87.542 62.5619 87.749 61.8391 87.9571 61.1015C88.0603 60.7478 88.161 60.3889 88.2653 60.0316C88.3143 59.8575 88.3639 59.6799 88.4129 59.5058C88.6105 58.8141 88.8113 58.1122 89.0142 57.4031C89.1258 57.0214 89.2359 56.632 89.3485 56.2467C89.4017 56.0588 89.4544 55.871 89.5107 55.6837C89.7032 55.0093 89.9008 54.3287 90.0964 53.6441C90.208 53.2624 90.317 52.876 90.4291 52.4912C90.4813 52.307 90.5376 52.1202 90.5903 51.9318C90.7869 51.2549 90.9845 50.5743 91.1848 49.8872C91.2928 49.5044 91.4054 49.1191 91.5175 48.7343C91.5739 48.5475 91.626 48.3632 91.6787 48.1749C91.88 47.4954 92.0777 46.8153 92.2764 46.1312C92.388 45.7495 92.4991 45.3677 92.6107 44.986C92.667 44.7992 92.7192 44.6149 92.7718 44.4266C92.9898 43.6916 93.2042 42.9561 93.4222 42.2211C93.5223 41.8775 93.6219 41.5339 93.7231 41.1868C93.7731 41.0208 93.8232 40.8544 93.8702 40.6874C94.0809 39.9769 94.2921 39.2627 94.5028 38.5522C94.6144 38.1704 94.7291 37.7897 94.8392 37.4115L95.0061 36.8577C95.2068 36.167 95.4123 35.4849 95.6147 34.8024C95.7294 34.4216 95.84 34.0434 95.9537 33.6662L96.1216 33.1089C96.326 32.4192 96.5325 31.7336 96.737 31.0551C96.8475 30.6769 96.9612 30.2997 97.0749 29.922L97.2429 29.3647C97.4515 28.6724 97.657 27.9903 97.8651 27.3129L98.3751 25.6204C98.6041 24.8737 98.8294 24.1372 99.0484 23.4103C99.1538 23.0718 99.2596 22.7339 99.3618 22.3944C99.4119 22.2284 99.4667 22.0594 99.5167 21.8935C99.7379 21.1712 99.9585 20.4632 100.173 19.7649C100.292 19.3816 100.41 19.0019 100.53 18.6298C100.586 18.443 100.645 18.2567 100.702 18.0699C100.919 17.3761 101.134 16.6971 101.342 16.0308C101.465 15.6485 101.583 15.2688 101.702 14.8967C101.761 14.711 101.821 14.5247 101.881 14.3389C102.101 13.6426 102.32 12.9646 102.529 12.3095C102.656 11.9211 102.778 11.5424 102.9 11.1713C102.961 10.982 103.024 10.7967 103.083 10.6145C103.313 9.90952 103.538 9.23713 103.752 8.59884C103.886 8.20436 104.014 7.82414 104.14 7.45765C104.205 7.26576 104.268 7.08099 104.33 6.89928C104.6 6.12305 104.85 5.41248 105.084 4.78386C105.225 4.39956 105.358 4.04275 105.481 3.71699C105.557 3.52815 105.625 3.34847 105.694 3.17999C106.138 2.06985 106.47 1.40204 106.661 1.26105C108.98 -0.429864 120.463 4.70598 121.895 6.31698Z" fill="#F0294D"/>
<path d="M120.563 5.93396C121.501 7.07209 97.613 86.6151 96.1314 86.9948C94.6487 87.3776 82.1393 84.1133 81.9693 82.9289C81.9505 82.8032 82.1966 81.7755 82.653 80.0413C82.7453 79.6916 82.8454 79.3145 82.9555 78.9057C83.0024 78.7276 83.0519 78.5423 83.1051 78.3545C83.2725 77.7218 83.4608 77.0311 83.6653 76.2849C83.7675 75.9118 83.8754 75.5214 83.986 75.1208C84.0382 74.9365 84.0882 74.7477 84.143 74.5563C84.3219 73.9083 84.5107 73.2253 84.7115 72.5157C84.8158 72.136 84.9227 71.7486 85.0322 71.3516C85.0843 71.1673 85.1375 70.9795 85.1913 70.7917C85.3769 70.1305 85.5652 69.451 85.7628 68.7516C85.8713 68.3693 85.9814 67.983 86.0899 67.5896C86.1431 67.4017 86.1963 67.2139 86.2495 67.0261C86.4393 66.3624 86.6317 65.6803 86.8299 64.9886C86.9353 64.6053 87.0484 64.22 87.1559 63.8296C87.2091 63.6417 87.2654 63.4549 87.3186 63.2671C87.5204 62.554 87.728 61.8312 87.9371 61.0942C88.0404 60.7404 88.1416 60.3821 88.2464 60.0242C88.2954 59.8502 88.3455 59.673 88.3945 59.499C88.5927 58.8072 88.7945 58.1058 88.9979 57.3968C89.1095 57.015 89.2201 56.6256 89.3332 56.2408C89.3864 56.053 89.4396 55.8652 89.496 55.6784C89.6889 55.0045 89.8876 54.3239 90.0837 53.6393C90.1953 53.2575 90.3048 52.8717 90.418 52.4864C90.4702 52.3022 90.5265 52.1154 90.5797 51.9275C90.7768 51.2506 90.9755 50.5705 91.1758 49.8834C91.2843 49.5011 91.3969 49.1158 91.5101 48.7305C91.5664 48.5437 91.6186 48.3594 91.6718 48.1716C91.8731 47.4921 92.0718 46.812 92.271 46.1284C92.3826 45.7467 92.4942 45.3649 92.6058 44.9837C92.6622 44.7969 92.7143 44.6126 92.7675 44.4248C92.9855 43.6903 93.2009 42.9543 93.4189 42.2198C93.519 41.8762 93.6191 41.5327 93.7203 41.1855C93.7704 41.0196 93.8205 40.8531 93.8674 40.6862C94.0781 39.9756 94.2898 39.262 94.5005 38.5514C94.6122 38.1697 94.7269 37.7889 94.8374 37.4107L95.0043 36.857C95.2057 36.1662 95.4111 35.4847 95.614 34.8016C95.7287 34.4209 95.8393 34.0427 95.953 33.6655L96.1209 33.1081C96.3254 32.4184 96.5319 31.7333 96.7363 31.0548C96.8469 30.6766 96.9606 30.2995 97.0743 29.9223L97.2422 29.3649C97.4508 28.6727 97.6563 27.9906 97.8639 27.3131L98.3739 25.6202C98.6024 24.8735 98.8277 24.137 99.0467 23.4101C99.152 23.0716 99.2574 22.7336 99.3596 22.3941C99.4097 22.2282 99.4639 22.0592 99.514 21.8933C99.7351 21.171 99.9552 20.463 100.169 19.7646C100.288 19.3813 100.406 19.0016 100.525 18.6295C100.581 18.4427 100.64 18.2564 100.697 18.0696C100.913 17.3759 101.128 16.6963 101.335 16.03C101.457 15.6478 101.575 15.2676 101.693 14.8955C101.753 14.7097 101.812 14.5234 101.872 14.3376C102.092 13.6413 102.309 12.9628 102.517 12.3077C102.644 11.9193 102.765 11.5401 102.887 11.1691C102.947 10.9797 103.01 10.7944 103.068 10.6117C103.298 9.90673 103.52 9.23333 103.733 8.59504C103.865 8.20056 103.993 7.81982 104.117 7.45283C104.182 7.26094 104.244 7.07565 104.305 6.89394C104.573 6.1172 104.821 5.40562 105.051 4.77598C105.19 4.39117 105.321 4.03385 105.443 3.70758C105.516 3.51823 105.584 3.33804 105.651 3.16956C106.087 2.05739 106.409 1.38601 106.589 1.24248C108.772 -0.490173 119.275 4.36419 120.563 5.93396Z" fill="#FBB136"/>
<path d="M85.77 79.094L87.94 79.7171C88.5878 79.9028 89.2486 80.1115 89.8134 80.4505C90.1769 80.6714 90.3719 81.0094 90.2024 81.2955C90.2014 81.3326 90.1936 81.3683 90.1836 81.4029C90.1753 81.4304 90.1638 81.4573 90.1492 81.4833C90.1471 81.4904 90.1409 81.4996 90.1357 81.5057C90.1211 81.5317 90.1007 81.5556 90.0809 81.5764C90.0601 81.6009 90.0376 81.6202 90.0121 81.6396C89.9391 81.694 89.8504 81.7322 89.7524 81.7607C89.6465 81.7907 89.5297 81.8019 89.4066 81.8009C88.7427 81.7907 88.0725 81.6136 87.4237 81.4309L85.2536 80.8079C84.5689 80.6114 83.8826 80.4215 83.2004 80.2184C83.0163 80.1655 82.8343 80.1059 82.6533 80.0423C82.7456 79.6926 82.8458 79.3155 82.9558 78.9067C83.0028 78.7286 83.0523 78.5433 83.1055 78.3555C83.3104 78.3952 83.5149 78.4466 83.7172 78.5046C84.403 78.694 85.0857 78.8976 85.77 79.094Z" fill="#242424"/>
<path opacity="0.2" d="M85.77 79.0936L87.9401 79.7166C88.5878 79.9024 89.2486 80.1111 89.8134 80.4501C90.1769 80.671 90.372 81.0089 90.2025 81.295C90.2014 81.3322 90.1936 81.3678 90.1837 81.4024C90.1753 81.4299 90.1639 81.4569 90.1493 81.4828C90.1472 81.49 90.1409 81.4991 90.1357 81.5052C90.1211 81.5312 90.1008 81.5551 90.081 81.576C90.0601 81.6004 90.0377 81.6198 90.0121 81.6391C89.9391 81.6936 89.8505 81.7317 89.7524 81.7602C89.7514 81.7526 89.7503 81.7445 89.7493 81.7368C89.6158 80.8298 87.8817 80.3091 86.7062 79.9828C85.4498 79.6372 84.2122 79.2289 82.9553 78.9057C83.0023 78.7276 83.0518 78.5423 83.105 78.3545C83.31 78.3942 83.5144 78.4456 83.7168 78.5036C84.4031 78.6935 85.0858 78.8971 85.77 79.0936Z" fill="#F0294D"/>
<path d="M84.1435 74.5566C84.4637 74.6447 84.7818 74.7399 85.101 74.8315C85.5245 74.9531 85.9485 75.0748 86.3709 75.1995C86.7485 75.3079 87.134 75.4336 87.4432 75.7029C87.6409 75.8765 87.7253 76.1829 87.5866 76.4776C87.5845 76.4959 87.5825 76.5143 87.5741 76.5306C87.5512 76.6405 87.5053 76.7367 87.4427 76.8125C87.3394 76.9449 87.1903 77.0299 87.0364 77.0533C86.627 77.1164 86.2333 77.0182 85.8557 76.9098C85.4312 76.7917 85.0077 76.67 84.5837 76.5484C84.2796 76.4613 83.9719 76.3763 83.6658 76.2847C83.768 75.9116 83.876 75.5212 83.9865 75.1206C84.0392 74.9364 84.0893 74.748 84.1435 74.5566Z" fill="#242424"/>
<path opacity="0.2" d="M84.1435 74.5566C84.4637 74.6447 84.7819 74.7399 85.101 74.8315C85.5245 74.9531 85.9485 75.0748 86.371 75.1995C86.7485 75.3079 87.134 75.4336 87.4432 75.7029C87.6409 75.8765 87.7254 76.1829 87.5866 76.4776C87.5845 76.4959 87.5825 76.5143 87.5741 76.5306C87.5512 76.6405 87.5053 76.7367 87.4427 76.8125C87.389 76.8797 87.3233 76.9327 87.2544 76.9729C87.2565 76.9657 87.2586 76.9591 87.2565 76.9546C87.2774 76.0882 86.2677 75.7757 85.5762 75.592C85.0421 75.4499 84.5185 75.2733 83.9871 75.1206C84.0392 74.9364 84.0893 74.748 84.1435 74.5566Z" fill="#F0294D"/>
<path d="M85.1907 70.792C85.5386 70.8882 85.8844 70.991 86.2281 71.0898L87.499 71.4547C87.8766 71.5631 88.261 71.6924 88.5713 71.9581C88.7689 72.1317 88.8534 72.4376 88.7147 72.7328C88.7126 72.7511 88.7105 72.7695 88.7022 72.7858C88.6886 72.8535 88.6678 72.911 88.6386 72.9629C88.6167 73.0016 88.5963 73.0372 88.5692 73.0708C88.5452 73.1054 88.5165 73.1344 88.4857 73.1594C88.4857 73.1594 88.4826 73.1583 88.4816 73.1619C88.4508 73.1868 88.4169 73.2108 88.3809 73.2306C88.3121 73.2708 88.238 73.2948 88.1645 73.3075C87.7551 73.3706 87.3613 73.2724 86.9827 73.1675L85.7118 72.8025C85.3801 72.7074 85.0447 72.6147 84.7109 72.5155C84.8152 72.1358 84.9222 71.7484 85.0317 71.3514C85.0838 71.1676 85.1375 70.9798 85.1907 70.792Z" fill="#242424"/>
<path opacity="0.2" d="M85.1908 70.792C85.5386 70.8882 85.8844 70.991 86.2281 71.0898L87.4991 71.4547C87.8767 71.5631 88.261 71.6924 88.5713 71.9581C88.769 72.1317 88.8535 72.4376 88.7148 72.7328C88.7127 72.7511 88.7106 72.7695 88.7022 72.7858C88.6897 72.8499 88.6689 72.9079 88.6386 72.9629C88.6167 73.0016 88.5964 73.0372 88.5693 73.0708C88.5421 73.1044 88.5145 73.1304 88.4858 73.1594C88.4858 73.1594 88.4827 73.1583 88.4816 73.1619C88.4508 73.1868 88.417 73.2108 88.381 73.2306C88.3831 73.2235 88.3851 73.2169 88.3841 73.2087C88.4039 72.3455 87.3942 72.0334 86.7037 71.8461C86.142 71.696 85.5908 71.5117 85.0322 71.3514C85.0839 71.1676 85.1376 70.9798 85.1908 70.792Z" fill="#F0294D"/>
<path d="M87.3568 67.344C87.7803 67.4656 88.2038 67.5873 88.6268 67.7125C89.0043 67.8209 89.3898 67.9466 89.699 68.2159C89.8967 68.3895 89.9812 68.6954 89.8424 68.9906C89.8404 69.0089 89.8383 69.0273 89.8299 69.0435C89.807 69.1535 89.7611 69.2492 89.698 69.3255C89.5947 69.4579 89.4456 69.5429 89.2917 69.5663C88.8823 69.6294 88.4885 69.5312 88.111 69.4227C87.6864 69.3047 87.263 69.183 86.839 69.0614C86.4796 68.958 86.1198 68.8588 85.7615 68.7519C85.87 68.3696 85.98 67.9833 86.0885 67.5898C86.1417 67.402 86.1949 67.2142 86.2481 67.0264C86.6189 67.1246 86.9881 67.2381 87.3568 67.344Z" fill="#242424"/>
<path opacity="0.2" d="M87.3574 67.344C87.7809 67.4656 88.2044 67.5873 88.6273 67.7125C89.0049 67.8209 89.3903 67.9466 89.6996 68.2159C89.8973 68.3895 89.9817 68.6954 89.843 68.9906C89.8409 69.0089 89.8389 69.0273 89.8305 69.0435C89.8076 69.1535 89.7617 69.2492 89.6986 69.3255C89.6448 69.3927 89.5791 69.4457 89.5103 69.4859C89.5124 69.4793 89.5145 69.4721 89.5134 69.464C89.5333 68.6012 88.5236 68.2887 87.832 68.1049C87.2458 67.9477 86.6742 67.7537 86.0896 67.5898C86.1428 67.402 86.196 67.2142 86.2492 67.0264C86.6195 67.1246 86.9887 67.2381 87.3574 67.344Z" fill="#F0294D"/>
<path d="M88.4846 63.602L89.7556 63.9669C90.1332 64.0754 90.5175 64.2047 90.8279 64.4704C91.0255 64.6439 91.11 64.9503 90.9713 65.2451C90.9692 65.2634 90.9671 65.2817 90.9587 65.298C90.9379 65.4125 90.8888 65.5072 90.8263 65.5835C90.7725 65.6507 90.71 65.7042 90.638 65.7439C90.5692 65.7841 90.4951 65.808 90.4216 65.8207C90.0122 65.8839 89.6184 65.7856 89.2398 65.6808L87.9688 65.3158C87.5913 65.2074 87.2053 65.1041 86.8303 64.989C86.9357 64.6057 87.0488 64.2204 87.1563 63.83C87.2095 63.6422 87.2658 63.4554 87.319 63.2676C87.707 63.3714 88.0976 63.491 88.4846 63.602Z" fill="#242424"/>
<path opacity="0.2" d="M88.4848 63.602L89.7558 63.9669C90.1334 64.0754 90.5178 64.2047 90.8281 64.4704C91.0257 64.6439 91.1102 64.9503 90.9715 65.2451C90.9694 65.2634 90.9673 65.2817 90.959 65.298C90.936 65.4079 90.8901 65.5041 90.8265 65.5835C90.7738 65.6472 90.7071 65.7037 90.6382 65.7439C90.6403 65.7367 90.6424 65.7301 90.6413 65.722C90.6612 64.8587 89.6515 64.5462 88.961 64.3594C88.356 64.197 87.7599 63.9955 87.1565 63.83C87.2097 63.6422 87.266 63.4554 87.3192 63.2676C87.7072 63.3714 88.0979 63.491 88.4848 63.602Z" fill="#F0294D"/>
<path d="M89.3819 59.7118C90.0672 59.9047 90.7509 60.1047 91.4352 60.3012C92.1596 60.5094 92.8808 60.7161 93.6042 60.9278C94.2519 61.1136 94.9137 61.3187 95.4775 61.6613C95.841 61.8822 96.0361 62.2202 95.8666 62.5062C95.8629 62.5729 95.8442 62.635 95.8155 62.6869C95.8113 62.7007 95.8019 62.7093 95.7946 62.7225C95.768 62.7673 95.7294 62.8055 95.6866 62.8381C95.6731 62.8493 95.6569 62.8595 95.6434 62.8707C95.598 62.8992 95.5479 62.9221 95.4952 62.9409C95.4686 62.9521 95.4431 62.9597 95.417 62.9674C95.3101 63.0005 95.1933 63.0122 95.0702 63.0106C94.4063 63.0005 93.7361 62.8233 93.0884 62.637C92.3629 62.4324 91.6417 62.2252 90.9173 62.0176C90.2325 61.8211 89.5472 61.6282 88.864 61.4282C88.5459 61.333 88.234 61.2286 87.9373 61.0942C88.0405 60.7405 88.1417 60.3822 88.2465 60.0243C88.2956 59.8502 88.3456 59.6731 88.3946 59.499C88.7248 59.5459 89.0554 59.6217 89.3819 59.7118Z" fill="#242424"/>
<path opacity="0.2" d="M89.3817 59.7118C90.067 59.9047 90.7507 60.1047 91.435 60.3012C92.1594 60.5094 92.8806 60.716 93.604 60.9278C94.2517 61.1136 94.9135 61.3187 95.4773 61.6612C95.8408 61.8821 96.0359 62.2201 95.8664 62.5062C95.8627 62.5729 95.844 62.635 95.8153 62.6869C95.8111 62.7006 95.8017 62.7093 95.7944 62.7225C95.7678 62.7673 95.7292 62.8055 95.6865 62.8381C95.6729 62.8493 95.6567 62.8594 95.6432 62.8706C95.5978 62.8991 95.5477 62.922 95.495 62.9409C95.4685 62.9521 95.4429 62.9597 95.4168 62.9673C95.4158 62.9597 95.4148 62.9516 95.4127 62.9475C95.2802 62.0369 93.5461 61.5167 92.3695 61.194C90.9901 60.8132 89.632 60.3628 88.2463 60.0253C88.2954 59.8512 88.3454 59.6741 88.3945 59.5C88.7246 59.5458 89.0552 59.6217 89.3817 59.7118Z" fill="#F0294D"/>
<path d="M90.7617 56.0421L92.0327 56.4071C92.4092 56.5191 92.7947 56.6448 93.1039 56.9141C93.3026 57.0841 93.3871 57.3905 93.2473 57.6888C93.2452 57.7071 93.2432 57.7249 93.2348 57.7417C93.2119 57.8517 93.166 57.9478 93.1029 58.0237C92.9996 58.1555 92.8505 58.241 92.6966 58.2644C92.2883 58.324 91.8934 58.2293 91.5159 58.1209L90.2449 57.756C89.8459 57.6414 89.4418 57.533 89.0449 57.4114L88.9958 57.3971C89.1075 57.0154 89.218 56.626 89.3312 56.2411C89.3844 56.0533 89.4376 55.8655 89.4939 55.6787L89.5612 55.6981C89.9628 55.8054 90.3628 55.9276 90.7617 56.0421Z" fill="#242424"/>
<path opacity="0.2" d="M90.7626 56.0421L92.0335 56.4071C92.4101 56.5191 92.7955 56.6448 93.1048 56.9141C93.3035 57.0841 93.3879 57.3905 93.2482 57.6888C93.2461 57.7071 93.244 57.7249 93.2357 57.7417C93.2127 57.8517 93.1668 57.9478 93.1037 58.0237C93.05 58.0909 92.9843 58.1438 92.9154 58.184C92.9175 58.1769 92.9196 58.1703 92.9186 58.1621C92.9384 57.2994 91.9287 56.9863 91.2382 56.7995C90.5998 56.6275 89.9709 56.4132 89.332 56.2411C89.3852 56.0533 89.4384 55.8655 89.4948 55.6787L89.562 55.6981C89.9636 55.8054 90.3636 55.9276 90.7626 56.0421Z" fill="#F0294D"/>
<path d="M90.6923 51.9522C91.0923 52.0631 91.4934 52.1822 91.8924 52.2968C92.3158 52.4184 92.7393 52.5401 93.1623 52.6653C93.5399 52.7737 93.9253 52.8994 94.2346 53.1687C94.4322 53.3423 94.5167 53.6482 94.378 53.9434C94.3759 53.9617 94.3738 53.9795 94.3654 53.9963C94.3425 54.1063 94.2966 54.2025 94.234 54.2783C94.1307 54.4102 93.9816 54.4957 93.8277 54.5191C93.4183 54.5822 93.0246 54.484 92.647 54.3755C92.2225 54.2575 91.799 54.1358 91.375 54.0141C90.976 53.8996 90.5729 53.7876 90.1749 53.6696C90.1442 53.6609 90.1134 53.6517 90.0842 53.6395C90.1958 53.2578 90.3054 52.8719 90.4185 52.4866C90.4707 52.3024 90.527 52.1156 90.5802 51.9277C90.6177 51.9344 90.6553 51.9415 90.6923 51.9522Z" fill="#242424"/>
<path opacity="0.2" d="M90.6922 51.9522C91.0923 52.0631 91.4933 52.1822 91.8923 52.2968C92.3158 52.4184 92.7392 52.5401 93.1622 52.6653C93.5398 52.7737 93.9252 52.8994 94.2345 53.1687C94.4321 53.3423 94.5166 53.6482 94.3779 53.9434C94.3758 53.9617 94.3737 53.9795 94.3654 53.9963C94.3424 54.1063 94.2965 54.2025 94.2339 54.2783C94.1802 54.3455 94.1145 54.3984 94.0457 54.4387C94.0478 54.4315 94.0488 54.4285 94.0478 54.4203C94.0686 53.554 93.0579 53.245 92.3674 53.0577C91.7134 52.8811 91.073 52.6597 90.4185 52.4866C90.4706 52.3024 90.5269 52.1156 90.5801 51.9277C90.6177 51.9344 90.6552 51.9415 90.6922 51.9522Z" fill="#F0294D"/>
<path d="M93.0199 48.5556L94.2908 48.9206C94.6684 49.029 95.0528 49.1583 95.3631 49.424C95.5608 49.5976 95.6453 49.9035 95.5066 50.1987C95.5045 50.217 95.5024 50.2353 95.494 50.2516C95.4805 50.3193 95.4596 50.3774 95.4304 50.4293C95.4085 50.468 95.3881 50.5036 95.361 50.5372C95.3376 50.5718 95.3084 50.6008 95.2776 50.6263C95.2776 50.6263 95.2745 50.6252 95.2734 50.6288C95.2427 50.6537 95.2088 50.6777 95.1728 50.6975C95.1039 50.7377 95.0299 50.7616 94.9563 50.7744C94.5469 50.8375 94.1532 50.7392 93.7745 50.6344L92.5036 50.2694C92.1046 50.1549 91.7004 50.0465 91.3036 49.9249C91.2608 49.9126 91.2175 49.9004 91.1758 49.8846C91.2843 49.5024 91.3969 49.117 91.5101 48.7317C91.5664 48.5449 91.6186 48.3607 91.6717 48.1729C91.7208 48.1871 91.7708 48.1978 91.8199 48.2115C92.2209 48.3184 92.6209 48.4411 93.0199 48.5556Z" fill="#242424"/>
<path opacity="0.2" d="M93.0204 48.5556L94.2913 48.9206C94.6689 49.029 95.0533 49.1583 95.3636 49.424C95.5612 49.5976 95.6457 49.9035 95.507 50.1987C95.5049 50.217 95.5028 50.2353 95.4945 50.2516C95.4819 50.3158 95.4611 50.3738 95.4308 50.4293C95.4089 50.468 95.3886 50.5036 95.3615 50.5372C95.3349 50.5708 95.3067 50.5967 95.278 50.6263C95.278 50.6263 95.2749 50.6252 95.2739 50.6288C95.2431 50.6537 95.2092 50.6777 95.1732 50.6975C95.1753 50.6904 95.1774 50.6838 95.1763 50.6756C95.1962 49.8123 94.1865 49.5003 93.496 49.313C92.83 49.1328 92.1776 48.9078 91.51 48.7317C91.5663 48.5449 91.6185 48.3607 91.6717 48.1729C91.7207 48.1871 91.7708 48.1978 91.8198 48.2115C92.2214 48.3184 92.6214 48.4411 93.0204 48.5556Z" fill="#F0294D"/>
<path d="M92.9482 44.4655C93.3483 44.5764 93.7493 44.6956 94.1483 44.8101C94.5718 44.9317 94.9953 45.0534 95.4182 45.1786C95.7958 45.287 96.1812 45.4127 96.4905 45.682C96.6881 45.8556 96.7726 46.1615 96.6339 46.4567C96.6318 46.475 96.6297 46.4928 96.6214 46.5096C96.5984 46.6196 96.5525 46.7158 96.4899 46.7916C96.3867 46.924 96.2375 47.009 96.0837 47.0324C95.6743 47.0955 95.2805 46.9973 94.9029 46.8888C94.4784 46.7708 94.0549 46.6491 93.6309 46.5275C93.232 46.4129 92.8288 46.3009 92.4309 46.1829C92.3756 46.1671 92.3214 46.1477 92.2703 46.1294C92.3819 45.7477 92.4935 45.3659 92.6051 44.9847C92.6614 44.7979 92.7135 44.6136 92.7667 44.4258C92.8272 44.4344 92.8898 44.4487 92.9482 44.4655Z" fill="#242424"/>
<path opacity="0.2" d="M92.9481 44.465C93.3481 44.576 93.7492 44.6951 94.1482 44.8096C94.5716 44.9313 94.9951 45.0529 95.4181 45.1781C95.7957 45.2866 96.1811 45.4123 96.4903 45.6815C96.688 45.8551 96.7725 46.161 96.6337 46.4562C96.6317 46.4746 96.6296 46.4924 96.6212 46.5092C96.5983 46.6191 96.5524 46.7153 96.4898 46.7912C96.4361 46.8584 96.3704 46.9113 96.3015 46.9515C96.3036 46.9444 96.3057 46.9378 96.3036 46.9332C96.3245 46.0669 95.3148 45.7543 94.6232 45.5706C93.9447 45.3868 93.284 45.1562 92.6055 44.9837C92.6618 44.7969 92.7139 44.6126 92.7671 44.4248C92.8271 44.434 92.8897 44.4482 92.9481 44.465Z" fill="#F0294D"/>
<path d="M97.0976 41.5112L99.2677 42.1342C99.9144 42.3236 100.576 42.5287 101.14 42.8712C101.504 43.0886 101.7 43.4266 101.529 43.7162C101.525 43.7829 101.507 43.845 101.478 43.8969C101.474 43.9106 101.464 43.9193 101.457 43.9325C101.43 43.9773 101.392 44.0155 101.349 44.0481C101.335 44.0593 101.319 44.0694 101.305 44.0806C101.26 44.1091 101.21 44.1321 101.157 44.1509C101.131 44.1621 101.105 44.1697 101.079 44.1774C100.972 44.2104 100.855 44.2221 100.732 44.2206C100.069 44.2069 99.3981 44.0333 98.7503 43.847L96.5802 43.224C95.8955 43.0275 95.2091 42.8377 94.527 42.6346C94.1442 42.5211 93.7671 42.3902 93.4182 42.2182C93.5183 41.8746 93.6185 41.531 93.7197 41.1839C93.7697 41.018 93.8198 40.8515 93.8667 40.6846C94.2589 40.7217 94.6521 40.8123 95.0428 40.9207C95.7307 41.1111 96.4128 41.3147 97.0976 41.5112Z" fill="#242424"/>
<path opacity="0.2" d="M97.0979 41.5112L99.268 42.1342C99.9147 42.3235 100.576 42.5287 101.14 42.8712C101.505 43.0886 101.7 43.4265 101.529 43.7162C101.526 43.7828 101.507 43.8449 101.478 43.8969C101.474 43.9106 101.465 43.9192 101.457 43.9325C101.43 43.9773 101.392 44.0155 101.349 44.048C101.335 44.0592 101.319 44.0694 101.306 44.0806C101.26 44.1091 101.21 44.132 101.157 44.1509C101.131 44.162 101.105 44.1697 101.079 44.1773C101.078 44.1697 101.077 44.1615 101.076 44.1539C100.943 43.2469 99.2085 42.7262 98.033 42.4004C96.5925 42.0018 95.1713 41.5264 93.7205 41.1849C93.7705 41.019 93.8206 40.8525 93.8675 40.6855C94.2597 40.7227 94.6529 40.8133 95.0436 40.9217C95.7309 41.1111 96.4131 41.3147 97.0979 41.5112Z" fill="#F0294D"/>
<path d="M95.2272 36.9058C95.6272 37.0167 96.0283 37.1358 96.4272 37.2504C96.8507 37.372 97.2747 37.4937 97.6972 37.6189C98.0747 37.7273 98.4602 37.853 98.7694 38.1223C98.9671 38.2959 99.0516 38.6023 98.9128 38.897C98.9108 38.9153 98.9087 38.9336 98.9003 38.9499C98.8774 39.0599 98.8315 39.1561 98.7684 39.2319C98.6651 39.3643 98.516 39.4493 98.3621 39.4727C97.9532 39.5358 97.559 39.4376 97.1814 39.3291C96.7569 39.211 96.3334 39.0894 95.9094 38.9677C95.5104 38.8532 95.1062 38.7448 94.7093 38.6232C94.6389 38.6028 94.5691 38.5794 94.5007 38.5519C94.6123 38.1701 94.7271 37.7894 94.8376 37.4112L95.0045 36.8574C95.0786 36.8671 95.1537 36.8849 95.2272 36.9058Z" fill="#242424"/>
<path opacity="0.2" d="M95.227 36.9058C95.627 37.0167 96.028 37.1358 96.427 37.2504C96.8505 37.372 97.2745 37.4937 97.6969 37.6189C98.0745 37.7273 98.4599 37.853 98.7692 38.1223C98.9668 38.2959 99.0513 38.6023 98.9126 38.897C98.9105 38.9153 98.9084 38.9336 98.9001 38.9499C98.8771 39.0599 98.8312 39.1561 98.7681 39.2319C98.7144 39.2991 98.6487 39.352 98.5798 39.3922C98.5819 39.3851 98.583 39.3821 98.5819 39.3739C98.6018 38.5107 97.5921 38.1986 96.9016 38.0113C96.208 37.8235 95.5315 37.5878 94.8379 37.4112L95.0048 36.8574C95.0783 36.8671 95.1534 36.8849 95.227 36.9058Z" fill="#F0294D"/>
<path d="M97.5551 33.5089L98.8261 33.8739C99.2026 33.9859 99.588 34.1116 99.8973 34.3809C100.096 34.5509 100.18 34.8573 100.041 35.1556C100.039 35.1739 100.037 35.1922 100.028 35.2085C100.005 35.3184 99.9594 35.4147 99.8968 35.4905C99.7935 35.6228 99.6444 35.7078 99.4905 35.7313C99.0821 35.7908 98.6874 35.6961 98.3098 35.5877L97.0388 35.2228C96.6398 35.1082 96.2356 34.9998 95.8388 34.8782C95.7621 34.8563 95.6865 34.8308 95.6145 34.8028C95.7292 34.4221 95.8398 34.0439 95.9535 33.6667L96.1214 33.1094C96.2002 33.1246 96.2779 33.143 96.3546 33.1649C96.7561 33.2723 97.1561 33.3944 97.5551 33.5089Z" fill="#242424"/>
<path opacity="0.2" d="M97.5552 33.5085L98.8261 33.8734C99.2027 33.9854 99.5881 34.1111 99.8973 34.3804C100.096 34.5504 100.181 34.8568 100.041 35.1551C100.039 35.1734 100.037 35.1918 100.028 35.208C100.005 35.318 99.9594 35.4142 99.8968 35.49C99.8431 35.5572 99.7774 35.6102 99.7085 35.6504C99.7106 35.6432 99.7127 35.6366 99.7117 35.6285C99.7315 34.7657 98.7218 34.4532 98.0313 34.2659C97.3335 34.0806 96.6524 33.8398 95.9546 33.6658L96.1225 33.1084C96.2013 33.1237 96.279 33.142 96.3557 33.1639C96.7562 33.2718 97.1562 33.394 97.5552 33.5085Z" fill="#F0294D"/>
<path d="M97.4843 29.4182C97.8843 29.5292 98.2854 29.6483 98.6844 29.7628C99.1079 29.8845 99.5313 30.0061 99.9543 30.1308C100.332 30.2392 100.717 30.365 101.027 30.6342C101.224 30.8078 101.309 31.1137 101.17 31.4089C101.168 31.4272 101.166 31.4456 101.157 31.4619C101.135 31.5718 101.089 31.668 101.026 31.7438C100.923 31.8762 100.774 31.9612 100.62 31.9846C100.21 32.0477 99.8166 31.9495 99.439 31.8411C99.0145 31.723 98.591 31.6013 98.167 31.4797C97.768 31.3652 97.3649 31.2532 96.967 31.1351C96.8903 31.1132 96.8116 31.0867 96.738 31.0542C96.8486 30.676 96.9623 30.2988 97.076 29.9216L97.2439 29.3643C97.3237 29.376 97.4045 29.3953 97.4843 29.4182Z" fill="#242424"/>
<path opacity="0.2" d="M97.484 29.4182C97.884 29.5292 98.2851 29.6483 98.684 29.7628C99.1075 29.8845 99.531 30.0061 99.954 30.1308C100.332 30.2392 100.717 30.365 101.026 30.6342C101.224 30.8078 101.308 31.1137 101.17 31.4089C101.168 31.4272 101.165 31.4456 101.157 31.4619C101.134 31.5718 101.088 31.668 101.026 31.7438C100.972 31.811 100.906 31.864 100.837 31.9042C100.84 31.8971 100.841 31.894 100.84 31.8859C100.86 31.0195 99.8497 30.7106 99.1592 30.5233C98.4593 30.3334 97.7771 30.0962 97.0762 29.9216L97.2441 29.3643C97.3234 29.376 97.4042 29.3953 97.484 29.4182Z" fill="#F0294D"/>
<path d="M99.8111 26.0222L101.082 26.3871C101.458 26.4991 101.844 26.6248 102.153 26.8941C102.351 27.0641 102.436 27.3705 102.296 27.6688C102.294 27.6871 102.292 27.7049 102.284 27.7217C102.261 27.8317 102.215 27.9279 102.152 28.0037C102.049 28.1361 101.9 28.2211 101.746 28.2445C101.338 28.304 100.943 28.2094 100.565 28.1009L99.2943 27.736C98.8953 27.6215 98.4911 27.5131 98.0942 27.3914C98.0176 27.3695 97.9388 27.343 97.8643 27.314L98.3743 25.6211C98.4531 25.6364 98.5339 25.6557 98.6105 25.6776C99.0121 25.7855 99.4116 25.9077 99.8111 26.0222Z" fill="#242424"/>
<path opacity="0.2" d="M99.8117 26.0222L101.082 26.3871C101.459 26.4991 101.844 26.6248 102.153 26.8941C102.352 27.0641 102.437 27.3705 102.297 27.6688C102.295 27.6871 102.293 27.7049 102.284 27.7217C102.261 27.8317 102.215 27.9279 102.153 28.0037C102.099 28.0709 102.033 28.1238 101.965 28.164C101.967 28.1569 101.969 28.1503 101.968 28.1427C101.988 27.2794 100.978 26.9674 100.287 26.7801C99.5906 26.5912 98.9053 26.353 98.2075 26.1794L98.3755 25.6221C98.4542 25.6373 98.5351 25.6567 98.6117 25.6786C99.0128 25.7855 99.4122 25.9076 99.8117 26.0222Z" fill="#F0294D"/>
<path d="M100.708 22.1303C101.393 22.3232 102.077 22.5232 102.761 22.7197C103.485 22.9279 104.207 23.1345 104.93 23.3463C105.578 23.5321 106.24 23.7372 106.803 24.0798C107.167 24.3007 107.362 24.6387 107.192 24.9247C107.189 24.9914 107.17 25.054 107.141 25.1054C107.137 25.1191 107.128 25.1278 107.12 25.141C107.093 25.1858 107.055 25.224 107.012 25.2566C106.998 25.2678 106.982 25.2779 106.969 25.2891C106.923 25.3176 106.873 25.3406 106.821 25.3594C106.794 25.3706 106.768 25.3782 106.742 25.3859C106.635 25.4189 106.519 25.4307 106.395 25.4291C105.732 25.419 105.061 25.2418 104.414 25.0555C103.688 24.8509 102.967 24.6437 102.243 24.4361C101.558 24.2396 100.871 24.0497 100.189 23.8466C99.7945 23.7296 99.4028 23.5906 99.0471 23.4094C99.1525 23.0709 99.2578 22.7329 99.3601 22.3934C99.4101 22.2275 99.4644 22.0585 99.5144 21.8926C99.9103 21.9313 100.313 22.0208 100.708 22.1303Z" fill="#242424"/>
<path opacity="0.2" d="M100.708 22.1308C101.393 22.3237 102.077 22.5237 102.761 22.7202C103.486 22.9284 104.207 23.135 104.93 23.3468C105.578 23.5326 106.24 23.7377 106.804 24.0802C107.167 24.3012 107.362 24.6391 107.193 24.9252C107.189 24.9919 107.17 25.0545 107.142 25.1059C107.137 25.1196 107.128 25.1283 107.121 25.1415C107.094 25.1863 107.055 25.2245 107.012 25.2571C106.999 25.2682 106.982 25.2784 106.969 25.2896C106.924 25.3181 106.873 25.341 106.821 25.3599C106.794 25.3711 106.769 25.3787 106.743 25.3863C106.742 25.3787 106.739 25.3741 106.738 25.3665C106.605 24.4594 104.871 23.9387 103.695 23.613C102.249 23.2129 100.819 22.7344 99.3604 22.3944C99.4104 22.2285 99.4647 22.0595 99.5147 21.8936C99.9106 21.9317 100.314 22.0213 100.708 22.1308Z" fill="#F0294D"/>
<path d="M102.091 18.4622L103.362 18.8272C103.739 18.9392 104.124 19.0649 104.433 19.3342C104.632 19.5042 104.716 19.8106 104.577 20.1089C104.575 20.1272 104.573 20.145 104.564 20.1618C104.541 20.2718 104.495 20.368 104.433 20.4438C104.33 20.5756 104.18 20.6611 104.027 20.6846C103.618 20.7441 103.223 20.6494 102.846 20.541L101.575 20.1761C101.176 20.0615 100.772 19.9531 100.375 19.8315C100.307 19.8121 100.238 19.7882 100.171 19.7653C100.29 19.382 100.408 19.0023 100.527 18.6302C100.583 18.4434 100.643 18.2571 100.699 18.0703C100.762 18.0846 100.827 18.0993 100.892 18.1182C101.292 18.2256 101.692 18.3477 102.091 18.4622Z" fill="#242424"/>
<path opacity="0.2" d="M102.092 18.4627L103.363 18.8277C103.739 18.9396 104.125 19.0654 104.434 19.3346C104.633 19.5046 104.717 19.8111 104.577 20.1093C104.575 20.1277 104.573 20.1455 104.565 20.1623C104.542 20.2722 104.496 20.3684 104.433 20.4443C104.38 20.5114 104.314 20.5644 104.245 20.6046C104.247 20.5975 104.249 20.5909 104.248 20.5832C104.268 19.7205 103.258 19.4079 102.568 19.2206C101.882 19.0389 101.212 18.8053 100.528 18.6312C100.584 18.4444 100.643 18.2581 100.7 18.0713C100.762 18.0855 100.827 18.1003 100.892 18.1191C101.292 18.226 101.692 18.3482 102.092 18.4627Z" fill="#F0294D"/>
<path d="M102.019 14.372C102.419 14.483 102.82 14.6021 103.219 14.7166C103.642 14.8382 104.066 14.9599 104.489 15.0851C104.866 15.1935 105.252 15.3192 105.561 15.5885C105.759 15.7621 105.843 16.0685 105.705 16.3632C105.702 16.3815 105.7 16.3994 105.692 16.4162C105.669 16.5261 105.623 16.6218 105.561 16.6981C105.457 16.83 105.308 16.9155 105.154 16.9389C104.745 17.002 104.351 16.9038 103.974 16.7954C103.549 16.6773 103.126 16.5556 102.702 16.434C102.303 16.3194 101.898 16.211 101.502 16.0894C101.446 16.0736 101.389 16.0532 101.336 16.0303C101.458 15.6481 101.576 15.2678 101.695 14.8958C101.754 14.71 101.813 14.5237 101.873 14.3379C101.922 14.3481 101.97 14.3583 102.019 14.372Z" fill="#242424"/>
<path opacity="0.2" d="M102.019 14.3725C102.419 14.4834 102.82 14.6025 103.219 14.7171C103.642 14.8387 104.066 14.9604 104.489 15.0856C104.866 15.194 105.252 15.3197 105.561 15.589C105.759 15.7625 105.843 16.069 105.704 16.3637C105.702 16.382 105.7 16.3998 105.692 16.4166C105.669 16.5266 105.623 16.6223 105.56 16.6986C105.507 16.7658 105.441 16.8182 105.372 16.8589C105.373 16.8554 105.375 16.8483 105.374 16.8406C105.394 15.9774 104.384 15.6653 103.694 15.478C103.025 15.2973 102.366 15.0703 101.695 14.8967C101.754 14.7109 101.814 14.5247 101.873 14.3389C101.922 14.3485 101.97 14.3587 102.019 14.3725Z" fill="#F0294D"/>
<path d="M104.346 10.9742L105.617 11.3392C105.993 11.4512 106.379 11.5769 106.688 11.8462C106.887 12.0162 106.971 12.3226 106.831 12.6209C106.829 12.6392 106.827 12.6575 106.819 12.6738C106.796 12.7838 106.75 12.88 106.687 12.9558C106.584 13.0881 106.435 13.1731 106.281 13.1966C105.872 13.2561 105.478 13.1614 105.1 13.053L103.829 12.6881C103.43 12.5735 103.026 12.4651 102.629 12.3435C102.592 12.3328 102.552 12.3216 102.516 12.3073C102.644 11.919 102.765 11.5398 102.886 11.1687C102.947 10.9793 103.009 10.7941 103.068 10.6113C103.093 10.6149 103.121 10.623 103.145 10.6296C103.547 10.737 103.947 10.8597 104.346 10.9742Z" fill="#242424"/>
<path opacity="0.2" d="M104.346 10.9742L105.617 11.3392C105.993 11.4512 106.379 11.5769 106.688 11.8462C106.887 12.0162 106.971 12.3226 106.831 12.6209C106.829 12.6392 106.827 12.6575 106.819 12.6738C106.796 12.7838 106.75 12.88 106.687 12.9558C106.633 13.023 106.567 13.0759 106.499 13.1161C106.501 13.109 106.503 13.1024 106.502 13.0942C106.522 12.2315 105.512 11.919 104.821 11.7316C104.169 11.5596 103.532 11.3392 102.886 11.1687C102.947 10.9793 103.01 10.7941 103.068 10.6113C103.094 10.6149 103.121 10.623 103.146 10.6296C103.547 10.737 103.947 10.8597 104.346 10.9742Z" fill="#F0294D"/>
<path d="M104.307 6.89258C104.697 7.001 105.086 7.11654 105.476 7.22852C105.9 7.35017 106.323 7.47183 106.746 7.59704C107.124 7.70546 107.509 7.83118 107.818 8.10044C108.016 8.27401 108.1 8.57993 107.962 8.87515C107.96 8.89347 107.957 8.9118 107.949 8.92809C107.926 9.03803 107.88 9.13423 107.818 9.21008C107.714 9.34242 107.565 9.42742 107.411 9.45083C107.002 9.51395 106.608 9.41571 106.231 9.30729C105.806 9.1892 105.383 9.06755 104.959 8.9459C104.56 8.83137 104.156 8.72296 103.759 8.60131L103.734 8.59418C103.866 8.1997 103.994 7.81896 104.118 7.45197C104.183 7.25957 104.245 7.07429 104.307 6.89258Z" fill="#242424"/>
<path opacity="0.2" d="M104.307 6.89258C104.698 7.001 105.087 7.11654 105.476 7.22852C105.9 7.35017 106.323 7.47183 106.746 7.59704C107.124 7.70546 107.509 7.83118 107.819 8.10044C108.016 8.27401 108.101 8.57993 107.962 8.87515C107.96 8.89347 107.958 8.9118 107.949 8.92809C107.927 9.03803 107.881 9.13423 107.818 9.21008C107.764 9.27726 107.699 9.3302 107.63 9.37041C107.632 9.36329 107.633 9.36023 107.632 9.35208C107.652 8.48881 106.642 8.17679 105.951 7.98948C105.338 7.82456 104.733 7.61689 104.119 7.45197C104.183 7.25957 104.246 7.07429 104.307 6.89258Z" fill="#F0294D"/>
<path d="M108.424 3.93046L110.594 4.55348C111.241 4.74283 111.903 4.94795 112.466 5.29051C112.831 5.50786 113.026 5.84584 112.855 6.13546C112.852 6.20214 112.833 6.26424 112.804 6.31615C112.8 6.3299 112.791 6.33855 112.783 6.35178C112.756 6.39657 112.718 6.43475 112.675 6.46733C112.662 6.47853 112.646 6.4887 112.632 6.4999C112.587 6.52841 112.537 6.55131 112.484 6.57014C112.457 6.58134 112.432 6.58898 112.406 6.59661C112.299 6.6297 112.182 6.64141 112.059 6.63988C111.396 6.62614 110.725 6.45256 110.077 6.26627L107.907 5.64325C107.222 5.44677 106.536 5.25743 105.854 5.05383C105.581 4.97544 105.308 4.88229 105.051 4.77438C105.191 4.38957 105.321 4.03225 105.443 3.70598C105.517 3.51663 105.585 3.33645 105.652 3.16797C105.891 3.21429 106.131 3.27181 106.371 3.34052C107.057 3.53038 107.74 3.73398 108.424 3.93046Z" fill="#242424"/>
<path opacity="0.2" d="M108.425 3.93046L110.595 4.55348C111.241 4.74283 111.903 4.94795 112.467 5.29051C112.832 5.50786 113.027 5.84584 112.856 6.13546C112.852 6.20214 112.834 6.26424 112.805 6.31615C112.801 6.3299 112.791 6.33855 112.784 6.35178C112.757 6.39657 112.719 6.43475 112.676 6.46733C112.663 6.47853 112.646 6.4887 112.633 6.4999C112.588 6.52841 112.537 6.55131 112.485 6.57014C112.458 6.58134 112.433 6.58898 112.407 6.59661C112.405 6.58898 112.404 6.58084 112.403 6.5732C112.27 5.66616 110.536 5.14545 109.36 4.81918C108.052 4.45829 106.759 4.0348 105.444 3.70598C105.517 3.51663 105.585 3.33645 105.652 3.16797C105.892 3.21429 106.132 3.27181 106.371 3.34052C107.058 3.53038 107.74 3.73398 108.425 3.93046Z" fill="#F0294D"/>
<path d="M68.8661 7.0303C71.1055 7.57778 105.872 87.0189 105.532 88.6053C105.192 90.1911 43.0283 116.451 40.8853 115.613C38.7423 114.776 4.36107 36.7232 4.9699 33.7252C5.57817 30.7272 64.7232 6.01723 68.8661 7.0303Z" fill="#9829F0"/>
<path opacity="0.2" d="M93.3101 60.4349C93.247 64.2563 91.9066 68.3246 90.8382 71.8228C90.6022 72.5956 90.3172 73.3492 89.9449 74.0704C88.7166 76.45 87.3221 78.8851 85.8983 81.1586C85.7039 81.4686 85.4945 81.7688 85.2709 82.0596C83.3098 84.6068 80.8598 86.8764 78.5168 89.0318C76.9297 90.4917 74.9235 91.4669 73.0757 92.5432C71.2334 93.6161 69.3951 94.8623 67.3602 95.6049C64.1645 96.7713 60.8275 97.6371 57.486 98.2956C56.4767 98.4946 55.4596 98.5924 54.4323 98.6375C51.2073 98.7793 47.7852 98.886 44.5062 98.6078C43.4603 98.5193 42.4223 98.3561 41.4001 98.1241C38.2303 97.404 34.8641 96.6944 31.7472 95.5923C31.4071 95.4719 31.0686 95.3443 30.7312 95.2141C36.0045 106.744 40.1819 115.34 40.8853 115.615C43.0283 116.452 105.192 90.1921 105.532 88.6063C105.669 87.9692 100.142 74.7724 93.3343 59.1729C93.3253 59.5956 93.3169 60.0166 93.3101 60.4349Z" fill="#9829F0"/>
<path d="M61.7648 24.515C62.9245 24.7096 78.8436 61.0971 78.6178 61.8524C78.3925 62.6082 44.9682 76.7043 43.8677 76.3701C42.7672 76.0365 27.0096 40.291 27.418 38.864C27.8257 37.4376 59.6184 24.155 61.7648 24.515Z" fill="#F1E3C8"/>
<path d="M66.9934 50.0933C60.7294 52.7115 54.4653 55.3297 48.2013 57.9484C46.4244 58.691 44.6475 59.4336 42.87 60.1768C41.926 60.5715 42.2482 61.3102 43.1938 60.915C49.4578 58.2969 55.7219 55.6787 61.9859 53.06C63.7628 52.3174 65.5398 51.5748 67.3172 50.8316C68.2606 50.4369 67.939 49.6981 66.9934 50.0933Z" fill="#1A1A1A"/>
<path d="M68.7815 54.1695C62.5174 56.7877 56.2534 59.4058 49.9894 62.024C48.2125 62.7666 46.4355 63.5098 44.658 64.2524C43.7141 64.6471 44.0363 65.3859 44.9819 64.9906C51.2459 62.3725 57.5099 59.7543 63.774 57.1356C65.5509 56.393 67.3278 55.6504 69.1053 54.9072C70.0493 54.5131 69.7271 53.7743 68.7815 54.1695Z" fill="#1A1A1A"/>
<path d="M70.5696 58.2457C64.3055 60.8638 58.0415 63.482 51.7775 66.1001C50.0006 66.8428 48.2236 67.5854 46.4461 68.3286C45.5022 68.7232 45.8244 69.462 46.77 69.0668C53.034 66.4487 59.298 63.8305 65.5621 61.2123C67.339 60.4697 69.1159 59.7265 70.8934 58.9839C71.8374 58.5892 71.5152 57.8505 70.5696 58.2457Z" fill="#1A1A1A"/>
<path opacity="0.6" d="M9.6904 35.8626C6.28016 37.2874 8.54312 42.4627 11.959 41.0352C15.3698 39.6104 13.1063 34.4356 9.6904 35.8626Z" fill="#1A1A1A"/>
<path d="M10.5641 36.7161C9.59875 36.6836 8.71622 37.0145 7.86633 37.3663C6.91901 37.7583 5.97337 38.1551 5.02718 38.5493C4.13111 38.9231 3.22885 39.2847 2.33841 39.6712C1.48008 40.0439 0.682026 40.532 0.177389 41.4065C-0.0918257 41.8732 -0.0304481 42.3927 0.199905 42.8214C0.358731 43.2799 0.701175 43.6817 1.23341 43.8136C2.22973 44.061 3.14325 43.8345 4.01172 43.4854C4.91286 43.1232 5.80384 42.7362 6.69935 42.3613C7.64498 41.965 8.59118 41.5714 9.53568 41.1729C10.3833 40.8156 11.2377 40.4209 11.8803 39.7168C12.2926 39.265 12.3985 38.5366 11.9975 37.8924C11.7964 37.1646 11.1842 36.7364 10.5641 36.7161Z" fill="#242424"/>
<path opacity="0.2" d="M11.0915 36.8379C11.0943 36.8544 11.0982 36.8698 11.101 36.8868C11.3894 38.8701 9.13259 39.8672 7.58995 40.4812C5.26671 41.4052 3.05219 42.586 0.599972 43.1648C0.527318 43.1818 0.456895 43.1934 0.388184 43.2016C0.576859 43.4896 0.856212 43.72 1.233 43.8134C2.22932 44.0608 3.14284 43.8343 4.01131 43.4852C4.91245 43.123 5.80346 42.736 6.69897 42.3611C7.6446 41.9648 8.5908 41.5712 9.53531 41.1727C10.3829 40.8154 11.2373 40.4207 11.8799 39.7166C12.2922 39.2647 12.3981 38.5364 11.9971 37.8922C11.8552 37.3755 11.5043 37.0138 11.0915 36.8379Z" fill="#9829F0"/>
<path opacity="0.6" d="M13.5713 44.7093C10.161 46.1341 12.424 51.3094 15.8399 49.8818C19.2501 48.4576 16.9871 43.2823 13.5713 44.7093Z" fill="#1A1A1A"/>
<path d="M14.4452 45.5618C13.4798 45.5293 12.5973 45.8608 11.7468 46.212C10.7995 46.604 9.85445 47.0008 8.90769 47.395C8.01163 47.7682 7.10934 48.1304 6.2189 48.5169C5.36057 48.8896 4.56252 49.3782 4.05732 50.2522C3.78811 50.7189 3.85005 51.2384 4.07984 51.6671C4.23923 52.1256 4.58111 52.5274 5.11334 52.6593C6.10966 52.9067 7.02318 52.6802 7.89165 52.3311C8.79279 51.9689 9.6838 51.5819 10.5799 51.207C11.5255 50.8107 12.4717 50.4171 13.4162 50.0186C14.2638 49.6613 15.1182 49.2666 15.7608 48.5625C16.1731 48.1107 16.279 47.3823 15.878 46.7381C15.6775 46.0103 15.0647 45.5827 14.4452 45.5618Z" fill="#242424"/>
<path opacity="0.2" d="M14.9715 45.6836C14.9744 45.7001 14.9783 45.7155 14.9811 45.7325C15.2695 47.7158 13.0127 48.7129 11.4701 49.3264C9.14684 50.2509 6.93228 51.4317 4.48006 52.0099C4.40685 52.027 4.33702 52.0385 4.26831 52.0468C4.45699 52.3348 4.73689 52.5651 5.11368 52.6586C6.11 52.9059 7.02355 52.6794 7.89202 52.3304C8.79316 51.9681 9.68414 51.5812 10.5796 51.2063C11.5253 50.81 12.4715 50.4164 13.416 50.0179C14.2636 49.6606 15.118 49.2659 15.7606 48.5617C16.1729 48.1099 16.2788 47.3816 15.8778 46.7373C15.7347 46.2212 15.3838 45.86 14.9715 45.6836Z" fill="#9829F0"/>
<path opacity="0.6" d="M17.4506 53.557C14.0404 54.9817 16.3034 60.157 19.7193 58.7295C23.1295 57.3047 20.8665 52.13 17.4506 53.557Z" fill="#1A1A1A"/>
<path d="M18.325 54.4094C17.3596 54.377 16.4771 54.7079 15.6272 55.0597C14.6799 55.4516 13.7342 55.8485 12.7881 56.2426C11.892 56.6159 10.9897 56.9781 10.0993 57.3645C9.24096 57.7372 8.44232 58.2253 7.93768 59.0999C7.66846 59.5666 7.73044 60.086 7.96023 60.5142C8.11962 60.9727 8.46147 61.3745 8.9937 61.5064C9.99058 61.7538 10.9036 61.5273 11.772 61.1783C12.6732 60.816 13.5642 60.429 14.4597 60.0541C15.4053 59.6578 16.3515 59.2643 17.296 58.8657C18.1436 58.5084 18.998 58.1138 19.6406 57.4096C20.0529 56.9572 20.1588 56.2294 19.7578 55.5852C19.5573 54.8585 18.9445 54.4303 18.325 54.4094Z" fill="#242424"/>
<path opacity="0.2" d="M18.852 54.5312C18.8548 54.5477 18.8587 54.5631 18.8615 54.5802C19.1499 56.5634 16.8931 57.5606 15.3505 58.174C13.0272 59.0986 10.8127 60.2793 8.36047 60.8576C8.28725 60.8746 8.21739 60.8862 8.14868 60.8944C8.33736 61.1824 8.61671 61.4128 8.9935 61.5062C9.99038 61.7536 10.9034 61.5271 11.7718 61.178C12.673 60.8158 13.564 60.4288 14.4595 60.0539C15.4051 59.6576 16.3513 59.264 17.2958 58.8655C18.1434 58.5082 18.9978 58.1136 19.6404 57.4094C20.0527 56.957 20.1586 56.2292 19.7576 55.585C19.6157 55.0694 19.2648 54.7077 18.852 54.5312Z" fill="#9829F0"/>
<path opacity="0.6" d="M21.3315 62.4036C17.9213 63.8284 20.1843 69.0037 23.6001 67.5762C27.0109 66.1514 24.7474 60.9767 21.3315 62.4036Z" fill="#1A1A1A"/>
<path d="M22.2055 63.2561C21.2401 63.2237 20.3576 63.5546 19.5077 63.9064C18.5604 64.2983 17.6153 64.6952 16.6686 65.0893C15.7725 65.4625 14.8702 65.8248 13.9798 66.2112C13.1214 66.5839 12.3234 67.0726 11.8187 67.9466C11.5495 68.4133 11.6109 68.9327 11.8413 69.3615C12.0007 69.8199 12.3425 70.2217 12.8748 70.3536C13.8711 70.601 14.7846 70.3745 15.6531 70.0255C16.5542 69.6632 17.4452 69.2763 18.3407 68.9014C19.2864 68.5056 20.2326 68.1115 21.1771 67.713C22.0247 67.3557 22.8791 66.961 23.5217 66.2568C23.934 65.805 24.0399 65.0767 23.6389 64.4324C23.4383 63.7047 22.8256 63.277 22.2055 63.2561Z" fill="#242424"/>
<path opacity="0.2" d="M22.7328 63.3779C22.7356 63.3944 22.7396 63.4104 22.7424 63.4268C23.0307 65.4101 20.7739 66.4072 19.2313 67.0207C16.9081 67.9453 14.6935 69.126 12.2413 69.7043C12.1681 69.7213 12.0983 69.7328 12.0295 69.7411C12.2182 70.0291 12.4976 70.2594 12.8744 70.3529C13.8707 70.6002 14.7842 70.3738 15.6527 70.0247C16.5538 69.6625 17.4448 69.2755 18.3403 68.9006C19.2859 68.5048 20.2321 68.1107 21.1766 67.7122C22.0243 67.3549 22.8787 66.9602 23.5213 66.2561C23.9336 65.8037 24.0394 65.0759 23.6384 64.4317C23.4965 63.9155 23.1456 63.5538 22.7328 63.3779Z" fill="#9829F0"/>
<path opacity="0.6" d="M25.2102 71.2515C21.7999 72.6762 24.0629 77.8515 27.4788 76.424C30.889 74.9992 28.626 69.8239 25.2102 71.2515Z" fill="#1A1A1A"/>
<path d="M26.0837 72.1047C25.1183 72.0723 24.2357 72.4038 23.3859 72.755C22.4385 73.1469 21.4929 73.5438 20.5467 73.9379C19.6506 74.3112 18.7484 74.6734 17.8579 75.0598C16.9996 75.4325 16.2016 75.9206 15.6969 76.7952C15.4277 77.2624 15.4891 77.7813 15.7194 78.2101C15.8788 78.6685 16.2207 79.0704 16.7529 79.2023C17.7493 79.4496 18.6628 79.2232 19.5312 78.8741C20.4324 78.5119 21.3234 78.1249 22.2189 77.75C23.1645 77.3537 24.1107 76.9601 25.0552 76.5616C25.9028 76.2043 26.7572 75.8091 27.3999 75.1055C27.8121 74.6531 27.918 73.9253 27.517 73.2811C27.316 72.5538 26.7032 72.1256 26.0837 72.1047Z" fill="#242424"/>
<path opacity="0.2" d="M26.61 72.2266C26.6128 72.2431 26.6168 72.2584 26.6196 72.2755C26.908 74.2587 24.6512 75.2559 23.1085 75.8699C20.7853 76.7944 18.5707 77.9746 16.1185 78.5534C16.0453 78.5705 15.9754 78.582 15.9067 78.5903C16.0954 78.8789 16.3748 79.1086 16.7516 79.2021C17.7479 79.4494 18.6614 79.223 19.5299 78.8739C20.431 78.5117 21.322 78.1247 22.2175 77.7498C23.1632 77.3535 24.1094 76.9599 25.0539 76.5614C25.9015 76.2041 26.7559 75.8094 27.3985 75.1053C27.8108 74.6529 27.9166 73.9251 27.5156 73.2809C27.3737 72.7647 27.0223 72.403 26.61 72.2266Z" fill="#9829F0"/>
<path opacity="0.6" d="M29.0918 80.097C25.6815 81.5218 27.9445 86.6971 31.3604 85.2695C34.7706 83.8448 32.5076 78.67 29.0918 80.097Z" fill="#1A1A1A"/>
<path d="M29.9645 80.9504C28.9992 80.918 28.1166 81.2495 27.2667 81.6007C26.3194 81.9926 25.3738 82.3895 24.4276 82.7836C23.5315 83.1569 22.6293 83.5191 21.7388 83.9055C20.8805 84.2782 20.0824 84.7669 19.5778 85.6409C19.3085 86.1076 19.37 86.627 19.6003 87.0558C19.7591 87.5142 20.1016 87.9161 20.6338 88.048C21.6301 88.2953 22.5436 88.0689 23.4121 87.7198C24.3132 87.3576 25.2043 86.9706 26.0998 86.5957C27.0454 86.1994 27.9916 85.8058 28.9361 85.4073C29.7837 85.05 30.6381 84.6553 31.2807 83.9512C31.693 83.4993 31.7989 82.771 31.3979 82.1268C31.1968 81.399 30.5846 80.9708 29.9645 80.9504Z" fill="#242424"/>
<path opacity="0.2" d="M30.4921 81.0723C30.4949 81.0888 30.4994 81.1041 30.5016 81.1212C30.79 83.1044 28.5332 84.1016 26.9906 84.715C24.6673 85.6396 22.4528 86.8203 20.0006 87.3986C19.9274 87.4156 19.8575 87.4272 19.7888 87.4354C19.9775 87.7235 20.2568 87.9538 20.6336 88.0472C21.63 88.2946 22.5435 88.0681 23.4119 87.7191C24.3131 87.3568 25.2041 86.9698 26.0996 86.595C27.0452 86.1986 27.9914 85.8051 28.9359 85.4065C29.7835 85.0492 30.6379 84.6546 31.2806 83.9504C31.6928 83.4986 31.7987 82.7702 31.3977 82.126C31.2558 81.6104 30.9049 81.2487 30.4921 81.0723Z" fill="#9829F0"/>
<path opacity="0.6" d="M32.9716 88.9446C29.5614 90.3694 31.8244 95.5447 35.2403 94.1172C38.6505 92.6929 36.3875 87.5177 32.9716 88.9446Z" fill="#1A1A1A"/>
<path d="M33.8439 89.7981C32.8785 89.7657 31.996 90.0971 31.1461 90.4484C30.1988 90.8403 29.2537 91.2372 28.307 91.6313C27.4109 92.0045 26.5086 92.3668 25.6182 92.7532C24.7599 93.1259 23.9618 93.6146 23.4572 94.4886C23.188 94.9552 23.2493 95.4747 23.4797 95.9035C23.6391 96.3619 23.981 96.7637 24.5132 96.8956C25.5095 97.143 26.423 96.9165 27.2915 96.5675C28.1926 96.2052 29.0836 95.8183 29.9791 95.4434C30.9248 95.047 31.871 94.6535 32.8155 94.2549C33.6631 93.8977 34.5175 93.503 35.1601 92.7988C35.5724 92.347 35.6783 91.6187 35.2773 90.9744C35.0768 90.2466 34.464 89.819 33.8439 89.7981Z" fill="#242424"/>
<path opacity="0.2" d="M34.3712 89.9199C34.374 89.9364 34.378 89.9518 34.3808 89.9688C34.6692 91.9521 32.4124 92.9492 30.8697 93.5627C28.5465 94.4873 26.3319 95.668 23.8797 96.2462C23.8065 96.2633 23.7367 96.2748 23.668 96.2831C23.8566 96.5711 24.136 96.8014 24.5128 96.8949C25.5091 97.1422 26.4226 96.9158 27.2911 96.5667C28.1922 96.2045 29.0832 95.8175 29.9787 95.4426C30.9244 95.0463 31.8706 94.6527 32.8151 94.2542C33.6627 93.8969 34.5171 93.5022 35.1597 92.7981C35.572 92.3462 35.6779 91.6179 35.2769 90.9737C35.1344 90.4575 34.7835 90.0964 34.3712 89.9199Z" fill="#9829F0"/>
<path opacity="0.6" d="M36.8515 97.7913C33.4413 99.2161 35.7043 104.391 39.1201 102.964C42.5304 101.539 40.2674 96.3644 36.8515 97.7913Z" fill="#1A1A1A"/>
<path d="M37.7253 98.6448C36.7599 98.6123 35.8774 98.9433 35.0275 99.2951C34.0802 99.687 33.1351 100.084 32.1883 100.478C31.2923 100.852 30.39 101.213 29.4996 101.6C28.6412 101.973 27.8431 102.461 27.3385 103.335C27.0693 103.802 27.1307 104.321 27.3611 104.75C27.5204 105.209 27.8623 105.61 28.3945 105.742C29.3908 105.99 30.3044 105.763 31.1729 105.414C32.074 105.052 32.965 104.665 33.8605 104.29C34.8061 103.894 35.7523 103.5 36.6968 103.102C37.5445 102.744 38.3988 102.35 39.0415 101.646C39.4537 101.194 39.5596 100.465 39.1586 99.8211C38.9575 99.0939 38.3448 98.6657 37.7253 98.6448Z" fill="#242424"/>
<path opacity="0.2" d="M38.2526 98.7666C38.2554 98.7831 38.2593 98.7985 38.2621 98.8155C38.5505 100.799 36.2937 101.796 34.7511 102.41C32.4278 103.334 30.2133 104.515 27.7611 105.093C27.6879 105.111 27.618 105.122 27.5493 105.13C27.738 105.418 28.0173 105.649 28.3941 105.742C29.3905 105.989 30.304 105.763 31.1724 105.414C32.0736 105.052 32.9646 104.665 33.8601 104.29C34.8057 103.894 35.7519 103.5 36.6964 103.101C37.5441 102.744 38.3984 102.349 39.0411 101.645C39.4539 101.193 39.5592 100.465 39.1582 99.8209C39.0163 99.3047 38.6654 98.9431 38.2526 98.7666Z" fill="#9829F0"/>
<path opacity="0.6" d="M40.7331 106.638C37.3229 108.063 39.5859 113.238 43.0017 111.811C46.4125 110.386 44.149 105.211 40.7331 106.638Z" fill="#1A1A1A"/>
<path d="M41.6061 107.491C40.6407 107.459 39.7582 107.79 38.9083 108.142C37.961 108.534 37.0159 108.931 36.0692 109.325C35.1731 109.698 34.2708 110.06 33.3804 110.447C32.5221 110.819 31.724 111.307 31.2194 112.182C30.9502 112.649 31.0115 113.168 31.2419 113.597C31.4013 114.055 31.7432 114.457 32.2754 114.589C33.2717 114.836 34.1852 114.61 35.0537 114.261C35.9548 113.899 36.8458 113.512 37.7413 113.137C38.687 112.74 39.6332 112.347 40.5777 111.948C41.4253 111.591 42.2797 111.196 42.9223 110.492C43.3346 110.04 43.4405 109.312 43.0395 108.668C42.8384 107.94 42.2262 107.512 41.6061 107.491Z" fill="#242424"/>
<path opacity="0.2" d="M42.1334 107.613C42.1363 107.63 42.1402 107.645 42.143 107.662C42.4314 109.645 40.1746 110.643 38.632 111.256C36.3087 112.181 34.0942 113.361 31.642 113.94C31.5687 113.957 31.4989 113.968 31.4302 113.976C31.6189 114.264 31.8982 114.495 32.275 114.588C33.2713 114.836 34.1849 114.609 35.0533 114.26C35.9545 113.898 36.8455 113.511 37.741 113.136C38.6866 112.74 39.6328 112.346 40.5773 111.948C41.4249 111.59 42.2793 111.196 42.9219 110.491C43.3342 110.04 43.4401 109.311 43.0391 108.667C42.8971 108.151 42.5463 107.789 42.1334 107.613Z" fill="#9829F0"/>
<path d="M110.032 62.9734C110.032 62.9734 109.342 46.6039 115.498 42.7347C115.498 42.7347 117.257 42.5841 117.957 45.0033C117.957 45.0033 111.658 51.4697 110.032 62.9734Z" fill="#242424"/>
<path opacity="0.5" d="M111.746 52.9482C111.282 52.5928 111.008 52.1477 110.887 51.6693C109.788 57.1784 110.032 62.9742 110.032 62.9742C110.562 59.2266 111.588 56.0179 112.731 53.3887C112.364 53.3071 112.021 53.1591 111.746 52.9482Z" fill="#F0294D"/>
<path d="M110.387 56.1398C111.291 55.7396 110.934 44.2048 104.281 43.0193C100.819 48.6888 109.484 56.5401 110.387 56.1398Z" fill="#A5DA30"/>
<path opacity="0.5" d="M110.296 50.4053C110.155 51.2518 109.632 51.9388 108.529 52.0774C107.181 52.2465 105.899 51.5755 104.904 50.6172C106.774 53.8654 109.866 56.3701 110.386 56.139C110.812 55.9512 110.957 53.2907 110.296 50.4053Z" fill="#F0294D"/>
<path d="M135.698 66.1791C131.526 52.482 116.147 52.9161 110.967 56.3657C106.938 51.6749 92.2543 47.1903 84.4361 59.2721C76.618 71.3539 87.3923 90.9527 91.3465 95.5467C95.3007 100.141 102.203 101.417 104.993 98.5949C106.896 102.049 113.894 102.646 118.976 99.2689C124.057 95.8924 139.869 79.8758 135.698 66.1791Z" fill="#F0294D"/>
<path opacity="0.5" d="M135.698 66.1792C135.165 64.4281 134.448 62.9097 133.593 61.5971C133.666 61.8845 133.733 62.1743 133.791 62.4668C134.151 64.2752 134.019 66.2532 133.818 68.0781C133.607 69.9962 133.039 71.8826 132.472 73.7193C131.523 76.7914 129.884 79.6959 127.985 82.3003C126.185 84.7691 123.834 87.0965 121.153 88.6442C113.457 93.0855 103.974 93.744 95.7388 90.1917C91.7819 88.485 88.0618 85.908 85.5157 82.4548C84.5304 81.1183 83.6226 79.6589 82.8777 78.1599C84.9566 85.9924 89.1775 93.027 91.3463 95.547C95.3005 100.141 102.203 101.417 104.993 98.5952C106.896 102.049 113.894 102.646 118.976 99.2692C124.057 95.8925 139.87 79.8759 135.698 66.1792Z" fill="#F0294D"/>
<path opacity="0.5" d="M95.6653 63.0528C92.8089 65.9226 88.1145 68.8288 86.4156 67.2184C84.7166 65.608 86.657 60.09 89.5135 57.2201C92.3699 54.3503 95.0613 55.2146 96.7596 56.8252C98.4587 58.4363 98.5224 60.1827 95.6653 63.0528Z" fill="#F1E3C8"/>
<path opacity="0.5" d="M118.564 60.6315C116.225 60.9139 113.048 60.5666 112.881 59.2476C112.714 57.9287 115.619 56.138 117.959 55.8555C120.298 55.5731 121.185 56.9067 121.352 58.2257C121.519 59.5442 120.903 60.3491 118.564 60.6315Z" fill="#F1E3C8"/>
</svg>
