<svg width="143" height="143" viewBox="0 0 143 143" fill="none" xmlns="http://www.w3.org/2000/svg">
<g filter="url(#filter0_d_148_2)">
<circle cx="71.5" cy="72.5" r="52.5" fill="white"/>
</g>
<path d="M55.3807 53.9223C44.2777 63.4938 49.4265 80.5568 52.6503 86.2423C61.3662 101.614 75.6079 102.046 83.8087 96.7609C92.0096 91.4759 91.7087 84.2449 86.3901 83.328C81.0711 82.4113 79.852 75.6765 85.2127 72.2588C90.5734 68.8412 93.9324 63.8331 89.1742 55.4418C84.4155 47.0503 70.3815 40.9906 55.3807 53.9223ZM77.1568 81.0263C78.3662 80.953 79.4654 81.3898 80.4343 82.28C80.9686 82.7707 81.4251 83.4003 81.7861 84.0471C82.2399 84.8601 82.6443 85.9008 82.6202 86.8709C82.58 88.4836 81.8578 89.901 80.5999 90.7825C79.3885 91.6316 77.7054 91.5569 76.4708 90.8197C75.6242 90.3138 75.0853 89.6242 74.5079 88.8121C73.8169 87.8407 73.1622 86.4173 73.247 85.1608C73.3451 83.7035 73.8336 82.4321 75.0421 81.637C75.6176 81.2591 76.3984 81.0206 77.1568 81.0263Z" fill="#FFC86E"/>
<path opacity="0.2" d="M55.3807 53.9223C44.2777 63.4938 49.4265 80.5568 52.6503 86.2423C61.3662 101.614 75.6079 102.046 83.8087 96.7609C92.0096 91.4759 91.7087 84.2449 86.3901 83.328C81.0711 82.4113 79.852 75.6765 85.2127 72.2588C90.5734 68.8412 93.9324 63.8331 89.1742 55.4418C84.4155 47.0503 70.3815 40.9906 55.3807 53.9223ZM77.1568 81.0263C78.3662 80.953 79.4654 81.3898 80.4343 82.28C80.9686 82.7707 81.4251 83.4003 81.7861 84.0471C82.2399 84.8601 82.6443 85.9008 82.6202 86.8709C82.58 88.4836 81.8578 89.901 80.5999 90.7825C79.3885 91.6316 77.7054 91.5569 76.4708 90.8197C75.6242 90.3138 75.0853 89.6242 74.5079 88.8121C73.8169 87.8407 73.1622 86.4173 73.247 85.1608C73.3451 83.7035 73.8336 82.4321 75.0421 81.637C75.6176 81.2591 76.3984 81.0206 77.1568 81.0263Z" fill="#F0294D"/>
<path d="M54.2586 53.104C43.1556 62.6755 48.3044 79.7384 51.5282 85.4239C60.2441 100.795 74.4858 101.227 82.6867 95.9425C90.8875 90.6575 90.5864 83.4261 85.2674 82.5094C79.9488 81.5925 78.7294 74.858 84.0901 71.4403C89.4507 68.0226 92.8098 63.0146 88.0516 54.6233C83.294 46.2321 69.2598 40.172 54.2586 53.104ZM76.0353 80.2081C77.2447 80.1348 78.3439 80.5716 79.3128 81.4618C79.8471 81.9525 80.3033 82.5817 80.6646 83.2289C81.1184 84.0419 81.5228 85.0826 81.4987 86.0527C81.4585 87.6654 80.7363 89.0828 79.4784 89.9643C78.2669 90.8133 76.5838 90.7387 75.3493 90.0015C74.5029 89.496 73.9637 88.806 73.3864 87.9939C72.6953 87.0225 72.0407 85.5991 72.1254 84.3426C72.2236 82.8853 72.7121 81.6139 73.9206 80.8188C74.4959 80.4405 75.2769 80.2024 76.0353 80.2081Z" fill="#FFC86E"/>
<path d="M61.0559 88.4222C61.5763 89.6274 62.5914 90.7158 63.7647 90.7918C63.7965 90.8095 63.8263 90.8278 63.855 90.8469C63.852 90.8574 63.9754 90.9877 63.9953 91.0142C64.8749 92.1774 66.1807 92.8833 67.5785 92.4208C69.1061 91.9157 70.0367 90.0543 69.5508 88.4043C69.4461 88.0495 69.2947 87.7247 69.091 87.4282C69.0596 87.3827 69.0323 87.3433 69.0067 87.3069C69.0247 87.089 69.0295 86.7103 69.0332 86.6302C69.0518 86.225 69.014 85.8308 68.9591 85.4303C68.7554 83.9436 68.1439 82.3957 66.9731 81.5057C65.8799 80.6747 64.5104 80.6737 63.3178 81.2506C60.7976 82.4691 59.9334 85.8234 61.0559 88.4222Z" fill="#F0294D"/>
<path opacity="0.2" d="M64.0018 80.99C64.8342 81.3164 65.6234 81.9096 66.1098 82.517C66.7917 83.3682 67.0557 84.4529 67.042 85.542C67.4587 85.8405 67.8155 86.2258 68.0393 86.7243C68.4306 87.5965 68.2218 88.2967 68.0086 89.1015C68.1802 90.4606 67.7552 91.8472 66.4942 92.5397C66.4858 92.5444 66.4778 92.5473 66.4694 92.552C66.8273 92.5839 67.198 92.5465 67.5761 92.4216C69.1037 91.9165 70.0343 90.0551 69.5484 88.4051C69.4437 88.0503 69.2924 87.7254 69.0887 87.429C69.0572 87.3835 69.0299 87.344 69.0043 87.3077C69.0223 87.0898 69.0271 86.7111 69.0308 86.631C69.0494 86.2258 69.0116 85.8316 68.9567 85.4311C68.753 83.9444 68.1415 82.3964 66.9707 81.5065C66.0829 80.8312 65.0121 80.7044 64.0018 80.99Z" fill="#F0294D"/>
<path d="M52.9708 74.3923C52.7706 75.2623 52.7099 76.2341 52.8347 77.1528C52.858 78.3039 53.1582 79.4476 53.9402 80.2868C54.8784 81.2938 56.1246 81.4741 57.3723 81.1994C58.7037 80.9061 59.8107 80.0926 60.1772 78.6322C60.4371 77.5957 60.2506 76.5643 60.5674 75.5319C60.9693 74.2231 61.1488 73.0742 60.5219 71.7855C59.91 70.5275 58.7842 69.535 57.4157 69.5928C55.15 69.688 53.4698 72.2268 52.9708 74.3923Z" fill="#FBB136"/>
<path opacity="0.2" d="M57.4155 69.593C56.8147 69.618 56.2566 69.8187 55.7492 70.1355C57.0703 69.9289 58.5444 70.3574 59.0849 71.6776C59.5724 72.8684 58.9785 73.9728 58.2896 74.8853C57.7152 75.6459 57.8681 75.593 58.0371 76.4869C58.1535 77.1037 58.0886 77.7378 57.8871 78.329C57.3879 79.7944 56.3207 80.7828 55.0994 81.0872C55.8057 81.3654 56.5886 81.3727 57.3719 81.2002C58.7033 80.9069 59.8103 80.0935 60.1767 78.6331C60.4367 77.5965 60.2502 76.5651 60.567 75.5327C60.9689 74.2239 61.1483 73.075 60.5215 71.7863C59.9098 70.5277 58.7841 69.5356 57.4155 69.593Z" fill="#F0294D"/>
<path d="M57.9255 55.3708C57.2465 56.0423 56.7302 56.8457 56.3673 57.7244C55.1306 59.6426 54.8023 62.3948 55.8238 64.3478C57.8387 68.2012 63.4973 65.7157 64.4058 62.1506C64.5058 61.7574 64.5331 61.3488 64.5723 60.9447C64.586 60.8042 64.5929 60.7237 64.5955 60.6816C64.5955 60.6816 64.5958 60.6803 64.5958 60.6794C64.6072 60.6083 64.7006 60.3226 64.6731 60.3617C64.9539 59.758 65.3705 59.2882 65.5677 58.6188C66.1312 56.7055 64.8248 54.8642 63.2908 54.0204C61.3835 52.9719 59.3788 53.9331 57.9255 55.3708Z" fill="#06A6DD"/>
<path opacity="0.2" d="M63.2906 54.022C62.4443 53.5568 61.5792 53.4883 60.7512 53.6804C61.2835 53.7797 61.7952 53.9794 62.2282 54.2647C63.4786 55.0874 64.0418 56.6607 63.5156 58.1521C63.2197 58.9907 62.663 59.6749 62.0464 60.2819C62.683 61.9541 62.6407 63.7745 61.3606 65.2748C61.111 65.5672 60.8383 65.8137 60.5511 66.024C62.3225 65.4337 63.9531 63.9265 64.4051 62.1515C64.5052 61.7582 64.5325 61.3497 64.5717 60.9456C64.5854 60.8051 64.5922 60.7245 64.5949 60.6824C64.5949 60.6824 64.5952 60.6812 64.5952 60.6802C64.6066 60.6092 64.7 60.3234 64.6724 60.3625C64.9533 59.7589 65.3699 59.2891 65.5671 58.6196C66.1314 56.7069 64.8249 54.8656 63.2906 54.022Z" fill="#F0294D"/>
<path d="M64.6267 67.5731C63.9795 68.8943 63.4646 70.5732 63.881 72.0594C64.1395 72.9818 64.7107 73.6313 65.4084 73.9414C66.2256 74.4803 67.3203 74.5569 68.2818 74.2064C69.7049 73.6873 71.036 72.7491 71.7817 71.309C73.2848 68.4061 71.3333 63.4671 67.8036 64.6084C66.4021 65.0613 65.3003 66.1981 64.6267 67.5731Z" fill="#A5DA30"/>
<path opacity="0.2" d="M69.6695 64.574C70.5583 65.1464 71.179 66.1763 71.0914 67.4392C71.0017 68.7336 70.0974 69.8344 68.9409 70.1482C68.9309 70.1509 68.9214 70.1517 68.9114 70.1543C69.1875 70.9817 69.1729 71.8558 68.5611 72.7348C67.8024 73.8253 66.7364 74.214 65.6868 74.0982C66.4642 74.4888 67.4257 74.5181 68.2821 74.206C69.7052 73.6869 71.0364 72.7487 71.7821 71.3086C72.9927 68.9699 71.961 65.3126 69.6695 64.574Z" fill="#F0294D"/>
<path d="M69.2531 54.0601C67.9849 55.1845 67.7504 56.8978 68.4987 58.4413C69.1701 59.8257 70.4751 60.6278 71.8028 61.1082C72.091 61.2125 72.3841 61.2948 72.6752 61.3708C74.342 62.6815 76.3867 63.8484 78.218 62.681C80.6251 61.1462 80.5218 57.7904 78.9292 55.6459C77.4499 53.6538 75.0861 52.3239 72.6748 52.5933C71.42 52.7337 70.2323 53.1918 69.2531 54.0601Z" fill="#242424"/>
<path opacity="0.2" d="M75.1565 52.8634C75.7233 53.679 75.843 54.8103 75.6025 55.8209C77.6186 57.3752 79.0088 60.239 77.0847 62.2665C76.67 62.7034 76.1506 62.9401 75.5935 63.0147C76.4752 63.2583 77.3697 63.2226 78.2185 62.6819C80.6257 61.1471 80.5223 57.7913 78.9297 55.6468C77.9694 54.353 76.6343 53.3418 75.1565 52.8634Z" fill="#F0294D"/>
<path d="M63.6336 85.6482C63.6038 87.1916 63.2211 89.2189 62.5915 89.205C61.9622 89.1909 61.3243 87.1402 61.3538 85.5971C61.3836 84.0537 62.0695 83.6022 62.6993 83.6165C63.3289 83.6304 63.6634 84.1048 63.6336 85.6482Z" fill="#F1E3C8"/>
<path d="M55.6089 76.0492C55.5791 77.5926 55.196 79.6202 54.5667 79.6061C53.9371 79.5922 53.2992 77.5415 53.329 75.9981C53.3588 74.4548 54.0449 74.0037 54.6746 74.0176C55.3042 74.0315 55.6387 74.5059 55.6089 76.0492Z" fill="#F1E3C8"/>
<path d="M58.3227 61.0771C58.2929 62.6204 57.9102 64.6478 57.2806 64.6339C56.651 64.62 56.0131 62.5693 56.0429 61.026C56.0727 59.4826 56.7588 59.0315 57.3884 59.0454C58.018 59.0593 58.3525 59.5337 58.3227 61.0771Z" fill="#F1E3C8"/>
<path d="M66.3402 91.8181C65.9264 92.3297 65.6094 92.0835 65.1184 91.6232C64.6275 91.1629 64.1488 90.6633 64.5626 90.1518C64.9764 89.6403 65.6292 89.9802 66.1201 90.4405C66.6111 90.9008 66.7537 91.3062 66.3402 91.8181Z" fill="#F1E3C8"/>
<path d="M65.3837 69.3441C66.0111 69.4019 66.003 69.9582 65.9299 70.8819C65.8564 71.8059 65.7457 72.7473 65.1183 72.6895C64.4909 72.6317 64.3798 71.6205 64.4533 70.6966C64.5262 69.7725 64.7561 69.2859 65.3837 69.3441Z" fill="#F1E3C8"/>
<path d="M69.9989 55.5169C70.6263 55.5746 70.6182 56.131 70.545 57.0547C70.4716 57.9786 70.3609 58.92 69.7335 58.8623C69.1061 58.8045 68.995 57.7933 69.0685 56.8694C69.1412 55.9459 69.3709 55.4589 69.9989 55.5169Z" fill="#F1E3C8"/>
<path d="M59.721 55.7974C60.2747 56.3555 60.0298 56.7054 59.5671 57.2375C59.1048 57.7694 58.6005 58.2823 58.0468 57.7243C57.4932 57.1662 57.8228 56.4254 58.2851 55.8935C58.7476 55.361 59.167 55.2396 59.721 55.7974Z" fill="#F1E3C8"/>
<defs>
<filter id="filter0_d_148_2" x="0.799999" y="0.799999" width="141.4" height="141.4" filterUnits="userSpaceOnUse" color-interpolation-filters="sRGB">
<feFlood flood-opacity="0" result="BackgroundImageFix"/>
<feColorMatrix in="SourceAlpha" type="matrix" values="0 0 0 0 0 0 0 0 0 0 0 0 0 0 0 0 0 0 127 0" result="hardAlpha"/>
<feOffset dy="-1"/>
<feGaussianBlur stdDeviation="9.1"/>
<feComposite in2="hardAlpha" operator="out"/>
<feColorMatrix type="matrix" values="0 0 0 0 0 0 0 0 0 0 0 0 0 0 0 0 0 0 0.14 0"/>
<feBlend mode="normal" in2="BackgroundImageFix" result="effect1_dropShadow_148_2"/>
<feBlend mode="normal" in="SourceGraphic" in2="effect1_dropShadow_148_2" result="shape"/>
</filter>
</defs>
</svg>
