<svg width="4064" height="765" viewBox="0 0 4064 765" fill="none" xmlns="http://www.w3.org/2000/svg">
<path d="M1064 688.542C762.892 677.773 606.128 735.029 565.385 765.004C625.262 651.711 873.205 622.311 989.692 621.773V55.8498L1064 33.2344V688.542Z" fill="#761CF7"/>
<path d="M-0.000183105 688.542C301.108 677.773 457.872 735.029 498.615 765.004C438.738 651.711 190.795 622.311 74.3075 621.773V55.8498L-0.000183105 33.2344V688.542Z" fill="#761CF7"/>
<path d="M110.923 18.1621C279.354 5.6062 439.564 123.336 498.615 183.77C325.877 79.4259 215.205 72.463 181.461 82.0246V516.069C395.554 551.572 474.564 643.432 487.308 684.925C372.723 586.642 188.641 574.7 110.923 581.014V18.1621Z" fill="#C094FF"/>
<path d="M555.691 183.077C575.709 163.405 606.321 137.8 643.999 112.609M555.691 183.077L745.23 329.764M555.691 183.077L558.518 308.538M943.922 18.3076C905.421 14.7045 866.707 18.7381 829.23 27.7995M943.922 18.3076L745.23 329.764M943.922 18.3076L943.788 158.981M943.384 581C911.878 579.981 882.676 580.548 855.614 582.393M943.384 581L849.91 462.486M943.384 581L943.518 440.327M566.999 684.923C588.67 667.05 612.349 649.824 656.922 630.538M566.999 684.923L564.172 559.461M566.999 684.923L656.114 507.344M643.999 112.609C669.192 95.7648 697.544 79.1056 727.999 64.5284M643.999 112.609L653.866 508.066M656.922 630.538C686.297 617.828 720.395 603.197 762.461 595M656.922 630.538L653.866 508.066M727.999 64.5284C759.844 49.286 793.99 36.32 829.23 27.7995M727.999 64.5284L561.345 434M727.999 64.5284L943.653 299.654M727.999 64.5284L736.785 199.769M762.461 595C788.016 590.02 824.729 584.499 855.614 582.393M762.461 595L943.653 299.654M762.461 595L653.866 508.066M762.461 595L753.845 462.382M829.23 27.7995L849.91 462.486M855.614 582.393L849.91 462.486M745.23 329.764L943.653 299.654M745.23 329.764L561.345 434M745.23 329.764L736.785 199.769M745.23 329.764L656.114 507.344M745.23 329.764L753.845 462.382M745.23 329.764L849.91 462.486M561.345 434L558.518 308.538M561.345 434L564.172 559.461M561.345 434L653.866 508.066M943.653 299.654L943.788 158.981M943.653 299.654L943.518 440.327M943.788 158.981L789.384 189.405L736.785 199.769M736.785 199.769L558.518 308.538M564.172 559.461L653.866 508.066M656.114 507.344L753.845 462.382M753.845 462.382L849.91 462.486M849.91 462.486L943.518 440.327" stroke="#C094FF" stroke-width="10"/>
<circle cx="555.693" cy="178.769" r="21.5385" fill="#C094FF"/>
<circle cx="562.154" cy="671.999" r="21.5385" fill="#C094FF"/>
<circle cx="941.232" cy="573.999" r="21.5385" fill="#C094FF"/>
<circle cx="941.232" cy="21.5385" r="21.5385" fill="#C094FF"/>
<circle cx="725.847" cy="64.6148" r="16.1538" fill="#C094FF"/>
<circle cx="762.462" cy="589.078" r="16.1538" fill="#C094FF"/>
<circle cx="942.308" cy="298.308" r="16.1538" fill="#C094FF"/>
<circle cx="562.154" cy="431.845" r="16.1538" fill="#C094FF"/>
<circle cx="746.307" cy="338.155" r="25.8462" fill="#C094FF"/>
<circle cx="644.001" cy="253.077" r="15.0769" fill="#C094FF"/>
<circle cx="642.923" cy="114.153" r="9.69231" fill="#C094FF"/>
<circle cx="828.153" cy="26.9247" r="9.69231" fill="#C094FF"/>
<circle cx="944.462" cy="157.229" r="9.69231" fill="#C094FF"/>
<circle cx="736.616" cy="200.308" r="9.69231" fill="#C094FF"/>
<circle cx="557.847" cy="307.999" r="9.69231" fill="#C094FF"/>
<circle cx="564.308" cy="558.923" r="9.69231" fill="#C094FF"/>
<circle cx="754.923" cy="464.153" r="9.69231" fill="#C094FF"/>
<circle cx="942.31" cy="441.54" r="9.69231" fill="#C094FF"/>
<circle cx="856.153" cy="581.538" r="9.69231" fill="#C094FF"/>
<circle cx="650.462" cy="383.386" r="9.69231" fill="#C094FF"/>
<circle cx="843.231" cy="315.538" r="9.69231" fill="#C094FF"/>
<circle cx="835.694" cy="180.923" r="15.0769" fill="#C094FF"/>
<circle cx="846.462" cy="456.616" r="15.0769" fill="#C094FF"/>
<circle cx="651.54" cy="509.384" r="15.0769" fill="#C094FF"/>
<path d="M1469.8 426.6C1469.8 443.667 1465.67 458.2 1457.4 470.2C1449.13 481.933 1437.27 491 1421.8 497.4C1406.6 503.8 1388.6 507 1367.8 507C1357.13 507 1346.87 506.467 1337 505.4C1327.4 504.333 1318.6 502.867 1310.6 501C1302.6 498.867 1295.53 496.333 1289.4 493.4V459C1299 463.267 1310.87 467.133 1325 470.6C1339.4 474.067 1354.2 475.8 1369.4 475.8C1383.53 475.8 1395.4 473.933 1405 470.2C1414.6 466.467 1421.8 461.133 1426.6 454.2C1431.4 447.267 1433.8 439.133 1433.8 429.8C1433.8 420.467 1431.8 412.6 1427.8 406.2C1423.8 399.8 1416.87 393.933 1407 388.6C1397.4 383 1383.93 377.133 1366.6 371C1354.33 366.467 1343.53 361.667 1334.2 356.6C1325.13 351.267 1317.53 345.267 1311.4 338.6C1305.27 331.933 1300.6 324.333 1297.4 315.8C1294.47 307.267 1293 297.4 1293 286.2C1293 271 1296.87 258.067 1304.6 247.4C1312.33 236.467 1323 228.067 1336.6 222.2C1350.47 216.333 1366.33 213.4 1384.2 213.4C1399.93 213.4 1414.33 214.867 1427.4 217.8C1440.47 220.733 1452.33 224.6 1463 229.4L1451.8 260.2C1441.93 255.933 1431.13 252.333 1419.4 249.4C1407.93 246.467 1395.93 245 1383.4 245C1371.4 245 1361.4 246.733 1353.4 250.2C1345.4 253.667 1339.4 258.6 1335.4 265C1331.4 271.133 1329.4 278.333 1329.4 286.6C1329.4 296.2 1331.4 304.2 1335.4 310.6C1339.4 317 1345.93 322.733 1355 327.8C1364.07 332.867 1376.33 338.333 1391.8 344.2C1408.6 350.333 1422.73 357 1434.2 364.2C1445.93 371.133 1454.73 379.533 1460.6 389.4C1466.73 399.267 1469.8 411.667 1469.8 426.6ZM1653.33 503L1559.33 252.6H1557.73C1558.26 257.933 1558.66 264.733 1558.93 273C1559.46 281.267 1559.86 290.333 1560.13 300.2C1560.4 309.8 1560.53 319.667 1560.53 329.8V503H1527.33V217.4H1580.53L1668.53 451.4H1670.13L1759.73 217.4H1812.53V503H1776.93V327.4C1776.93 318.067 1777.06 308.867 1777.33 299.8C1777.6 290.467 1778 281.8 1778.53 273.8C1779.06 265.533 1779.46 258.6 1779.73 253H1778.13L1682.93 503H1653.33ZM2069.42 503L2035.02 414.6H1921.82L1887.82 503H1851.42L1963.02 216.2H1995.42L2106.62 503H2069.42ZM1992.22 296.2C1991.42 294.067 1990.09 290.2 1988.22 284.6C1986.36 279 1984.49 273.267 1982.62 267.4C1981.02 261.267 1979.69 256.6 1978.62 253.4C1977.29 258.733 1975.82 264.2 1974.22 269.8C1972.89 275.133 1971.42 280.067 1969.82 284.6C1968.49 289.133 1967.29 293 1966.22 296.2L1933.82 382.6H2024.22L1992.22 296.2ZM2224.49 217.4C2248.22 217.4 2267.69 220.467 2282.89 226.6C2298.36 232.467 2309.82 241.4 2317.29 253.4C2324.76 265.4 2328.49 280.467 2328.49 298.6C2328.49 313.8 2325.69 326.467 2320.09 336.6C2314.49 346.733 2307.29 354.867 2298.49 361C2289.96 366.867 2280.89 371.533 2271.29 375L2349.69 503H2307.69L2238.49 385H2181.69V503H2145.69V217.4H2224.49ZM2222.49 248.6H2181.69V354.6H2224.49C2239.96 354.6 2252.62 352.6 2262.49 348.6C2272.36 344.333 2279.56 338.2 2284.09 330.2C2288.89 322.2 2291.29 312.2 2291.29 300.2C2291.29 287.667 2288.76 277.667 2283.69 270.2C2278.89 262.733 2271.42 257.267 2261.29 253.8C2251.16 250.333 2238.22 248.6 2222.49 248.6ZM2484.92 503H2448.92V249H2359.72V217.4H2573.72V249H2484.92V503Z" fill="#761CF7"/>
<path d="M2811.09 503H2775.09V249H2685.89V217.4H2899.89V249H2811.09V503ZM3102.56 503H2942.96V217.4H3102.56V249H2978.96V338.2H3095.36V369.4H2978.96V471.4H3102.56V503ZM3344.42 503L3310.02 414.6H3196.82L3162.82 503H3126.42L3238.02 216.2H3270.42L3381.62 503H3344.42ZM3267.22 296.2C3266.42 294.067 3265.09 290.2 3263.22 284.6C3261.36 279 3259.49 273.267 3257.62 267.4C3256.02 261.267 3254.69 256.6 3253.62 253.4C3252.29 258.733 3250.82 264.2 3249.22 269.8C3247.89 275.133 3246.42 280.067 3244.82 284.6C3243.49 289.133 3242.29 293 3241.22 296.2L3208.82 382.6H3299.22L3267.22 296.2ZM3535.28 245C3520.08 245 3506.34 247.667 3494.08 253C3481.81 258.067 3471.41 265.667 3462.88 275.8C3454.34 285.667 3447.81 297.8 3443.28 312.2C3438.74 326.333 3436.48 342.333 3436.48 360.2C3436.48 383.667 3440.08 404.067 3447.28 421.4C3454.74 438.733 3465.68 452.067 3480.08 461.4C3494.74 470.733 3513.01 475.4 3534.88 475.4C3547.41 475.4 3559.28 474.333 3570.48 472.2C3581.68 470.067 3592.61 467.4 3603.28 464.2V495.4C3592.61 499.4 3581.54 502.333 3570.08 504.2C3558.88 506.067 3545.41 507 3529.68 507C3500.61 507 3476.34 501 3456.88 489C3437.41 477 3422.74 459.933 3412.88 437.8C3403.28 415.667 3398.48 389.667 3398.48 359.8C3398.48 338.2 3401.41 318.467 3407.28 300.6C3413.41 282.733 3422.21 267.267 3433.68 254.2C3445.41 241.133 3459.81 231.133 3476.88 224.2C3493.94 217 3513.54 213.4 3535.68 213.4C3550.34 213.4 3564.48 214.867 3578.08 217.8C3591.68 220.733 3603.81 224.867 3614.48 230.2L3600.08 260.6C3591.28 256.6 3581.41 253 3570.48 249.8C3559.81 246.6 3548.08 245 3535.28 245ZM3884.01 503H3848.01V369.8H3701.61V503H3665.61V217.4H3701.61V338.2H3848.01V217.4H3884.01V503Z" fill="#C094FF"/>
</svg>
